<?xml version="1.0" encoding="UTF-8" standalone="no"?>
<!DOCTYPE svg PUBLIC "-//W3C//DTD SVG 1.1//EN" "http://www.w3.org/Graphics/SVG/1.1/DTD/svg11.dtd">
<svg xmlns="http://www.w3.org/2000/svg" version="1.1" viewBox="0.00 0.00 1414.00 2222.00">
<g stroke-width="2.00" fill="none" stroke-linecap="butt">
<path stroke="#bf8e7b" vector-effect="non-scaling-stroke" d="
  M 1414.00 1475.74
  L 884.00 1075.31"
/>
<path stroke="#91766a" vector-effect="non-scaling-stroke" d="
  M 884.00 1075.31
  L 883.13 1067.47"
/>
<path stroke="#9d8174" vector-effect="non-scaling-stroke" d="
  M 883.13 1067.47
  C 881.62 1051.99 882.64 1039.92 883.34 1020.75
  Q 883.68 1011.46 882.14 996.70
  C 881.13 986.95 877.38 972.12 876.48 962.50
  C 874.78 944.49 879.40 924.97 881.22 908.75
  C 881.98 902.01 882.23 893.59 879.49 887.06
  C 876.32 879.50 868.10 876.54 860.54 878.81
  C 851.71 881.47 843.33 888.37 836.63 894.66
  Q 836.11 895.15 817.38 913.09
  Q 807.36 922.70 792.94 923.17
  Q 774.83 923.77 755.52 922.11
  C 743.80 921.10 734.75 918.71 726.37 912.35
  C 711.00 900.68 699.89 891.31 684.57 884.95
  C 672.40 879.89 657.75 879.85 650.66 892.05
  C 643.98 903.57 647.41 921.47 650.47 933.78
  Q 654.65 950.62 657.02 960.49
  Q 661.88 980.75 661.87 1003.00
  Q 661.87 1010.92 661.48 1019.18"
/>
<path stroke="#91766a" vector-effect="non-scaling-stroke" d="
  M 661.48 1019.18
  Q 661.56 1020.70 657.10 1021.06"
/>
<path stroke="#9d8174" vector-effect="non-scaling-stroke" d="
  M 657.10 1021.06
  C 649.30 1022.46 641.15 1023.80 633.65 1025.42
  Q 605.92 1031.40 597.44 1032.94
  C 539.56 1043.46 498.17 1050.19 450.34 1065.35
  C 417.69 1075.70 385.57 1089.36 356.69 1107.92
  Q 338.31 1119.72 322.45 1135.67
  Q 287.43 1170.87 285.66 1220.70
  Q 285.63 1221.33 284.94 1221.88"
/>
<path stroke="#bf8e7b" vector-effect="non-scaling-stroke" d="
  M 284.94 1221.88
  L 0.57 1471.42
  A 0.49 0.38 -88.9 0 0 0.44 1471.58
  Q 0.15 1472.21 0.00 1472.10"
/>
<path stroke="#2e2a25" vector-effect="non-scaling-stroke" d="
  M 883.13 1067.47
  Q 881.49 1067.01 880.54 1068.78
  Q 875.16 1078.80 870.36 1088.60
  A 0.52 0.52 0.0 0 0 871.10 1089.27
  Q 878.66 1084.50 883.84 1077.36"
/>
<path stroke="#5c4236" vector-effect="non-scaling-stroke" d="
  M 883.84 1077.36
  Q 885.32 1084.33 886.43 1091.05
  Q 886.66 1092.41 887.08 1093.44
  C 889.10 1098.34 891.92 1103.28 894.98 1109.52
  Q 898.13 1115.94 901.38 1123.54
  Q 914.78 1154.87 935.88 1194.63
  Q 954.56 1229.84 972.16 1255.03
  C 987.13 1276.45 1006.57 1300.14 1021.31 1319.29
  C 1042.15 1346.36 1061.06 1374.59 1078.63 1400.37
  C 1101.34 1433.69 1120.95 1458.45 1149.59 1495.44
  Q 1158.64 1507.14 1177.96 1533.51
  Q 1181.11 1537.80 1184.11 1540.88
  C 1188.82 1545.71 1191.74 1549.17 1194.39 1553.20
  Q 1213.59 1582.44 1232.60 1609.14
  Q 1246.77 1629.05 1264.62 1646.12
  C 1283.44 1664.12 1292.36 1671.55 1304.18 1685.80
  C 1318.60 1703.19 1325.18 1725.57 1316.17 1747.54"
/>
<path stroke="#2e2a25" vector-effect="non-scaling-stroke" d="
  M 1316.17 1747.54
  Q 1312.39 1734.13 1309.70 1727.57
  Q 1306.57 1719.95 1301.27 1713.93
  A 0.42 0.42 0.0 0 0 1300.54 1714.16
  C 1299.80 1720.91 1300.11 1726.58 1301.95 1734.01
  Q 1304.57 1744.61 1305.67 1749.59
  Q 1307.00 1755.65 1305.06 1761.67
  A 0.74 0.74 0.0 0 0 1305.87 1762.63
  L 1306.23 1762.57"
/>
<path stroke="#5c4236" vector-effect="non-scaling-stroke" d="
  M 1306.23 1762.57
  Q 1300.70 1768.16 1293.74 1768.94
  Q 1283.99 1770.04 1281.78 1770.85
  A 3.75 3.65 33.3 0 1 1280.64 1771.07
  Q 1270.62 1771.43 1261.39 1769.76
  A 0.84 0.84 0.0 0 1 1260.96 1769.53
  Q 1260.69 1769.26 1260.63 1769.45"
/>
<path stroke="#2e2a25" vector-effect="non-scaling-stroke" d="
  M 1260.63 1769.45
  L 1261.44 1769.13
  A 0.85 0.85 0.0 0 0 1261.96 1768.41
  C 1262.72 1759.89 1260.27 1750.36 1259.23 1743.20
  C 1258.55 1738.45 1256.97 1734.40 1254.86 1730.50
  A 0.72 0.72 0.0 0 0 1253.53 1730.65
  C 1251.97 1736.25 1250.85 1740.68 1250.30 1746.83
  Q 1249.43 1756.52 1247.72 1766.04"
/>
<path stroke="#5c4236" vector-effect="non-scaling-stroke" d="
  M 1247.72 1766.04
  Q 1235.17 1765.32 1226.54 1759.74
  Q 1215.50 1752.60 1204.84 1739.67
  C 1193.49 1725.89 1184.26 1710.52 1175.32 1694.69
  Q 1164.70 1675.88 1155.13 1658.52
  Q 1139.15 1629.52 1119.77 1602.82
  C 1113.96 1594.82 1104.84 1584.62 1099.52 1577.52
  Q 1094.71 1571.12 1088.78 1565.54
  Q 1071.47 1549.27 1061.75 1541.54
  Q 1035.87 1520.94 1026.24 1512.91
  Q 995.32 1487.11 969.91 1452.73
  Q 955.62 1433.40 935.93 1405.34
  Q 916.82 1378.10 894.70 1353.56
  Q 879.02 1336.17 860.58 1322.20
  C 848.99 1313.43 825.75 1299.17 811.32 1307.53
  C 803.43 1312.11 799.57 1321.71 797.91 1329.96
  C 794.80 1345.42 795.68 1361.42 797.42 1378.01
  Q 798.46 1387.94 799.85 1395.94
  Q 806.71 1435.24 818.90 1474.83
  C 829.98 1510.80 842.20 1545.39 854.22 1586.23
  C 859.79 1605.14 869.89 1642.14 878.41 1667.82
  C 885.63 1689.58 893.10 1710.29 898.83 1733.14
  C 906.97 1765.55 907.30 1799.32 894.78 1830.64
  C 893.98 1832.63 892.51 1834.74 891.29 1836.64"
/>
<path stroke="#2e2a25" vector-effect="non-scaling-stroke" d="
  M 891.29 1836.64
  Q 888.65 1825.14 884.34 1814.42
  Q 882.46 1809.76 879.13 1805.57
  A 0.50 0.49 36.3 0 0 878.28 1805.70
  Q 874.92 1814.49 876.23 1824.00
  Q 877.42 1832.60 877.92 1842.24
  Q 878.75 1858.29 873.62 1873.31
  Q 870.27 1883.11 867.01 1889.74
  C 864.27 1895.33 857.02 1902.87 852.80 1892.70
  C 849.50 1884.73 847.62 1871.88 846.23 1866.31
  Q 843.89 1856.93 839.10 1848.42
  A 0.42 0.42 0.0 0 0 838.32 1848.54
  C 836.71 1856.03 835.41 1862.74 835.66 1871.55
  Q 835.87 1878.47 835.81 1886.00
  C 835.79 1888.87 835.13 1895.99 831.44 1896.39
  Q 825.23 1897.06 819.81 1893.43
  A 5.62 5.12 82.7 0 1 818.94 1892.69
  Q 814.54 1887.98 810.02 1883.50
  C 807.16 1880.67 803.57 1875.81 803.24 1871.75
  Q 802.83 1866.54 803.64 1858.84
  Q 804.58 1849.97 806.85 1836.48
  A 1.10 1.08 -88.1 0 0 805.67 1835.20
  Q 804.91 1835.28 804.47 1836.10
  Q 804.20 1836.61 804.03 1836.88
  Q 792.17 1855.12 790.38 1877.66"
/>
<path stroke="#5c4236" vector-effect="non-scaling-stroke" d="
  M 790.38 1877.66
  Q 781.23 1873.99 775.13 1866.61
  C 748.99 1835.01 751.59 1791.23 751.69 1753.52
  Q 751.81 1708.76 742.95 1664.92
  Q 741.84 1659.40 740.93 1652.52
  Q 739.60 1642.48 739.00 1640.08
  Q 726.20 1588.38 723.76 1580.52
  C 714.19 1549.70 705.28 1518.24 698.64 1486.25"
/>
<path stroke="#2e2a25" vector-effect="non-scaling-stroke" d="
  M 698.64 1486.25
  L 712.95 1490.14
  A 0.72 0.72 0.0 0 0 713.71 1489.00
  Q 707.35 1480.68 697.70 1475.38
  A 0.73 0.73 0.0 0 0 696.69 1475.69
  L 696.36 1476.34"
/>
<path stroke="#5c4236" vector-effect="non-scaling-stroke" d="
  M 696.36 1476.34
  L 693.76 1462.70"
/>
<path stroke="#2e2a25" vector-effect="non-scaling-stroke" d="
  M 693.76 1462.70
  Q 698.00 1465.12 701.92 1467.40
  C 708.44 1471.20 713.86 1473.43 720.58 1474.49
  A 0.80 0.80 0.0 0 0 721.40 1473.30
  Q 716.36 1464.79 707.79 1459.20
  Q 700.12 1454.21 691.50 1449.09
  A 0.25 0.24 9.5 0 0 691.13 1449.35
  Q 691.19 1449.65 690.96 1450.05"
/>
<path stroke="#5c4236" vector-effect="non-scaling-stroke" d="
  M 690.96 1450.05
  L 689.21 1440.53"
/>
<path stroke="#2e2a25" vector-effect="non-scaling-stroke" d="
  M 689.21 1440.53
  L 700.80 1444.98
  A 0.34 0.34 0.0 0 0 701.15 1444.41
  L 690.28 1434.58
  A 1.25 1.24 -53.7 0 0 688.37 1434.88
  Q 688.23 1435.09 688.17 1435.71"
/>
<path stroke="#5c4236" vector-effect="non-scaling-stroke" d="
  M 688.17 1435.71
  Q 680.06 1393.45 676.66 1370.28
  Q 669.29 1320.12 668.78 1316.99
  Q 667.03 1306.22 664.87 1298.13
  C 660.43 1281.54 652.20 1273.23 634.49 1272.20
  Q 623.83 1271.58 619.32 1272.04
  Q 602.42 1273.80 585.60 1273.86"
/>
<path stroke="#2e2a25" vector-effect="non-scaling-stroke" d="
  M 585.60 1273.86
  C 587.12 1262.94 581.74 1253.91 572.47 1248.28
  C 557.76 1239.35 540.23 1243.13 524.92 1250.62
  C 514.82 1255.55 503.67 1260.52 488.95 1267.69
  C 465.01 1279.35 448.35 1302.62 438.72 1326.78
  A 0.42 0.42 0.0 0 0 439.12 1327.36
  L 441.46 1327.27"
/>
<path stroke="#5c4236" vector-effect="non-scaling-stroke" d="
  M 441.46 1327.27
  C 439.11 1327.76 435.33 1332.42 433.43 1334.78
  Q 396.87 1380.29 361.17 1429.93
  Q 355.40 1437.95 344.67 1454.91
  Q 322.52 1489.89 313.72 1529.22
  C 308.39 1553.05 304.63 1573.65 295.26 1594.01
  C 292.12 1600.83 288.49 1606.64 282.64 1611.25"
/>
<path stroke="#2e2a25" vector-effect="non-scaling-stroke" d="
  M 282.64 1611.25
  C 282.45 1608.98 281.68 1606.80 281.48 1604.66
  Q 280.56 1594.96 281.03 1585.69
  C 281.24 1581.48 281.04 1576.61 280.80 1572.96
  A 0.44 0.44 0.0 0 0 279.97 1572.79
  Q 273.55 1585.59 269.52 1599.73
  Q 267.37 1607.26 260.98 1611.24
  A 1.61 1.61 0.0 0 1 258.65 1610.52
  Q 257.86 1608.71 257.83 1605.98
  Q 257.73 1594.66 259.97 1582.96
  A 0.40 0.40 0.0 0 0 259.27 1582.63
  Q 256.19 1586.40 249.59 1595.85
  C 246.85 1599.77 234.86 1616.05 230.62 1606.34
  C 227.82 1599.94 230.63 1590.84 233.01 1584.24
  Q 236.17 1575.45 236.78 1565.01
  A 0.49 0.48 -20.9 0 0 235.95 1564.64
  Q 227.90 1572.86 222.72 1584.15
  Q 218.38 1593.61 213.70 1603.08"
/>
<path stroke="#5c4236" vector-effect="non-scaling-stroke" d="
  M 213.70 1603.08
  C 191.13 1588.76 210.04 1536.09 218.44 1516.67
  Q 229.29 1491.58 233.86 1480.09
  C 239.85 1465.03 246.00 1441.93 251.54 1427.36
  Q 259.96 1405.18 269.45 1386.47
  Q 283.74 1358.30 287.53 1349.74
  Q 297.97 1326.20 306.58 1301.73"
/>
<path stroke="#2e2a25" vector-effect="non-scaling-stroke" d="
  M 306.58 1301.73
  Q 306.78 1302.39 307.15 1302.58
  Q 307.87 1302.94 308.21 1302.25
  Q 313.98 1290.37 318.97 1278.99
  C 332.57 1247.99 342.08 1213.10 339.70 1179.45
  Q 339.42 1175.59 338.69 1172.49
  A 0.43 0.43 0.0 0 0 337.88 1172.42
  C 336.91 1174.72 335.62 1177.64 335.00 1180.36
  Q 331.16 1197.37 328.86 1210.56
  C 323.77 1239.89 314.36 1268.38 304.61 1296.61"
/>
<path stroke="#5c4236" vector-effect="non-scaling-stroke" d="
  M 304.61 1296.61
  Q 294.86 1277.60 289.94 1256.81
  Q 285.96 1239.99 285.79 1223.50
  Q 285.78 1222.13 284.94 1221.88"
/>
<path stroke="#2e2a25" vector-effect="non-scaling-stroke" d="
  M 657.10 1021.06
  Q 658.58 1022.86 658.56 1024.95
  Q 658.41 1041.97 664.97 1057.28
  C 669.28 1067.33 674.16 1075.62 682.59 1082.23
  A 0.49 0.49 0.0 0 0 683.38 1081.91
  Q 683.43 1081.50 683.21 1080.76
  Q 680.46 1071.24 676.11 1063.54
  C 668.38 1049.88 665.62 1036.09 663.84 1020.93
  Q 663.51 1018.17 661.48 1019.18"
/>
<path stroke="#9d9a97" vector-effect="non-scaling-stroke" d="
  M 838.81 928.03
  Q 834.26 933.26 830.82 940.09
  C 829.88 941.95 828.21 948.05 830.88 949.26
  A 0.54 0.53 -72.8 0 0 831.63 948.86
  Q 833.19 940.47 839.14 933.19"
/>
<path stroke="#5c4236" vector-effect="non-scaling-stroke" d="
  M 839.14 933.19
  L 840.20 934.83
  A 1.93 1.88 -2.3 0 0 840.91 935.47
  C 846.96 938.61 857.53 940.59 860.42 931.95
  C 863.20 923.61 863.77 916.76 864.80 906.75
  Q 865.21 902.87 864.25 901.39
  C 859.42 893.90 853.23 901.95 850.06 906.56
  Q 842.77 917.15 838.81 928.03"
/>
<path stroke="#bfa79e" vector-effect="non-scaling-stroke" d="
  M 839.14 933.19
  Q 842.17 927.54 846.65 922.81
  A 0.33 0.32 6.6 0 0 846.25 922.31
  Q 842.84 924.26 838.81 928.03"
/>
<path stroke="#5c4236" vector-effect="non-scaling-stroke" d="
  M 704.66 944.60
  C 711.27 940.04 715.71 935.34 709.67 928.28
  Q 705.81 923.76 698.58 917.38
  Q 688.50 908.48 684.72 905.79
  C 680.08 902.49 674.76 899.99 670.76 904.91
  C 665.84 910.97 673.81 930.16 676.56 937.23
  Q 678.78 942.94 681.45 947.60
  C 686.49 956.37 698.91 948.57 704.66 944.60"
/>
<path stroke="#9d9a97" vector-effect="non-scaling-stroke" d="
  M 762.20 956.00
  C 763.53 950.03 757.56 944.15 752.73 941.24
  Q 745.35 936.78 735.89 935.60
  Q 731.93 935.11 728.45 936.94
  A 0.25 0.25 0.0 0 0 728.59 937.41
  C 730.67 937.20 732.49 937.21 734.34 937.98
  C 745.70 942.75 754.78 946.76 761.61 956.12
  A 0.33 0.33 0.0 0 0 762.20 956.00"
/>
<path stroke="#9d9a97" vector-effect="non-scaling-stroke" d="
  M 845.11 938.16
  Q 839.16 939.73 835.09 945.65
  A 4.53 4.48 -33.8 0 0 834.39 949.09
  L 834.45 949.39
  A 0.96 0.96 0.0 0 0 836.08 949.87
  C 838.69 947.23 841.10 941.78 845.37 938.71
  A 0.31 0.31 0.0 0 0 845.11 938.16"
/>
<path stroke="#9d8174" vector-effect="non-scaling-stroke" d="
  M 740.75 949.34
  L 751.52 951.86
  A 0.15 0.15 0.0 0 0 751.70 951.75
  L 751.72 951.68
  A 5.56 1.28 13.2 0 0 746.60 949.17
  L 746.36 949.11
  A 5.56 1.28 13.2 0 0 740.66 949.09
  L 740.64 949.16
  A 0.15 0.15 0.0 0 0 740.75 949.34"
/>
<path stroke="#9d9a97" vector-effect="non-scaling-stroke" d="
  M 832.5327 994.8990
  A 17.89 17.41 90.6 0 0 850.1290 977.1923
  A 17.89 17.41 90.6 0 0 832.9073 959.1210
  A 17.89 17.41 90.6 0 0 815.3110 976.8277
  A 17.89 17.41 90.6 0 0 832.5327 994.8990"
/>
<path stroke="#9d9a97" vector-effect="non-scaling-stroke" d="
  M 752.0879 1004.5096
  A 20.87 20.29 78.9 0 0 767.9804 980.1237
  A 20.87 20.29 78.9 0 0 744.0521 963.5504
  A 20.87 20.29 78.9 0 0 728.1596 987.9363
  A 20.87 20.29 78.9 0 0 752.0879 1004.5096"
/>
<path stroke="#5c4236" vector-effect="non-scaling-stroke" d="
  M 842.02 1008.86
  Q 841.38 1012.39 842.05 1015.26"
/>
<path stroke="#9d9a97" vector-effect="non-scaling-stroke" d="
  M 842.05 1015.26
  Q 838.42 1015.11 834.98 1016.30
  A 1.23 1.23 0.0 0 0 834.60 1018.41
  Q 835.39 1019.06 836.77 1018.95
  Q 839.13 1018.77 841.49 1018.11"
/>
<path stroke="#5c4236" vector-effect="non-scaling-stroke" d="
  M 841.49 1018.11
  Q 843.36 1017.75 842.24 1021.28"
/>
<path stroke="#9d9a97" vector-effect="non-scaling-stroke" d="
  M 842.24 1021.28
  L 834.90 1022.46
  A 0.71 0.71 0.0 0 0 834.67 1023.79
  Q 836.42 1024.73 838.74 1025.07
  Q 844.20 1025.86 849.24 1026.19"
/>
<path stroke="#5c4236" vector-effect="non-scaling-stroke" d="
  M 849.24 1026.19
  Q 854.14 1029.26 859.21 1026.20"
/>
<path stroke="#9d9a97" vector-effect="non-scaling-stroke" d="
  M 859.21 1026.20
  L 875.22 1024.72
  A 0.33 0.33 0.0 0 0 875.24 1024.07
  L 865.56 1022.50"
/>
<path stroke="#5c4236" vector-effect="non-scaling-stroke" d="
  M 865.56 1022.50
  Q 871.20 1010.24 860.29 1002.41"
/>
<path stroke="#9d9a97" vector-effect="non-scaling-stroke" d="
  M 860.29 1002.41
  L 869.51 996.69
  A 0.44 0.44 0.0 0 0 869.25 995.88
  C 858.76 996.66 851.68 1000.62 837.64 1006.88
  Q 834.46 1008.29 832.13 1010.17
  A 0.61 0.61 0.0 0 0 832.66 1011.23
  L 842.02 1008.86"
/>
<path stroke="#bfa79e" vector-effect="non-scaling-stroke" d="
  M 860.29 1002.41
  L 842.02 1008.86"
/>
<path stroke="#bfa79e" vector-effect="non-scaling-stroke" d="
  M 865.56 1022.50
  Q 854.61 1020.73 842.24 1021.28"
/>
<path stroke="#bfa79e" vector-effect="non-scaling-stroke" d="
  M 841.49 1018.11
  Q 843.10 1017.79 844.16 1016.77
  A 0.60 0.60 0.0 0 0 844.20 1015.93
  Q 843.63 1015.27 842.05 1015.26"
/>
<path stroke="#bfa79e" vector-effect="non-scaling-stroke" d="
  M 859.21 1026.20
  L 849.24 1026.19"
/>
<path stroke="#2e2a25" vector-effect="non-scaling-stroke" d="
  M 806.11 1039.24
  A 0.51 0.51 0.0 0 1 806.83 1039.24
  Q 812.69 1045.14 820.89 1048.12
  C 822.81 1048.82 824.95 1048.69 826.07 1046.87
  C 827.38 1044.74 825.19 1042.33 823.45 1041.28
  C 817.52 1037.72 811.55 1035.16 810.34 1028.15
  Q 810.27 1027.76 808.81 1016.67
  A 0.93 0.93 0.0 0 1 809.19 1015.78
  C 812.61 1013.30 817.40 1009.86 819.48 1006.65
  C 822.50 1001.98 820.93 996.77 814.72 996.36
  Q 809.29 996.00 800.79 996.82
  C 797.30 997.16 788.14 998.73 786.82 1002.17
  Q 784.88 1007.22 789.57 1009.22
  Q 797.34 1012.52 802.26 1015.17
  A 1.98 1.98 0.0 0 1 803.29 1017.15
  Q 803.24 1017.61 801.75 1030.49
  C 801.27 1034.58 793.21 1039.85 786.34 1045.08
  Q 782.85 1047.73 785.41 1050.55
  A 3.26 3.07 -32.8 0 0 789.09 1051.23
  Q 798.16 1047.10 806.11 1039.24"
/>
<path stroke="#5c4236" vector-effect="non-scaling-stroke" d="
  M 728.47 1017.81
  Q 727.01 1019.60 726.20 1021.18
  Q 720.47 1032.41 728.41 1042.17"
/>
<path stroke="#9d9a97" vector-effect="non-scaling-stroke" d="
  M 728.41 1042.17
  L 708.17 1049.74
  A 0.03 0.02 -31.7 0 0 708.16 1049.76
  L 708.24 1050.00
  A 0.27 0.26 -14.8 0 0 708.56 1050.18
  L 731.45 1044.44"
/>
<path stroke="#5c4236" vector-effect="non-scaling-stroke" d="
  M 731.45 1044.44
  Q 735.98 1047.37 740.75 1047.26
  Q 751.15 1047.03 754.99 1037.54"
/>
<path stroke="#9d9a97" vector-effect="non-scaling-stroke" d="
  M 754.99 1037.54
  L 772.15 1030.94
  A 0.64 0.64 0.0 0 0 772.56 1030.34
  L 772.56 1029.83
  A 0.47 0.46 -6.9 0 0 771.98 1029.38
  L 756.59 1033.10"
/>
<path stroke="#5c4236" vector-effect="non-scaling-stroke" d="
  M 756.59 1033.10
  Q 757.13 1031.56 756.89 1029.53
  Q 756.10 1022.57 752.05 1017.91"
/>
<path stroke="#9d9a97" vector-effect="non-scaling-stroke" d="
  M 752.05 1017.91
  Q 759.97 1018.32 767.87 1017.60
  Q 768.43 1017.55 768.61 1017.32
  A 0.40 0.40 0.0 0 0 768.38 1016.68
  Q 762.17 1015.43 756.65 1014.91
  C 739.20 1013.28 719.59 1012.52 702.74 1015.23
  A 0.41 0.40 45.1 0 0 702.74 1016.03
  Q 715.51 1018.19 728.47 1017.81"
/>
<path stroke="#bfa79e" vector-effect="non-scaling-stroke" d="
  M 752.05 1017.91
  L 728.47 1017.81"
/>
<path stroke="#bfa79e" vector-effect="non-scaling-stroke" d="
  M 756.59 1033.10
  L 728.41 1042.17"
/>
<path stroke="#bfa79e" vector-effect="non-scaling-stroke" d="
  M 754.99 1037.54
  L 731.45 1044.44"
/>
<path stroke="#9d9a97" vector-effect="non-scaling-stroke" d="
  M 767.66 1025.33
  L 767.51 1023.68
  A 0.51 0.51 0.0 0 0 766.96 1023.22
  L 764.30 1023.47
  A 7.08 1.27 -5.3 0 0 757.37 1025.38
  L 757.38 1025.52
  A 7.08 1.27 -5.3 0 0 764.55 1026.13
  L 767.20 1025.89
  A 0.51 0.51 0.0 0 0 767.66 1025.33"
/>
<path stroke="#2e2a25" vector-effect="non-scaling-stroke" d="
  M 411.33 1108.61
  A 0.52 0.52 0.0 0 0 411.83 1109.49
  Q 414.63 1108.73 419.08 1106.77
  Q 435.86 1099.36 469.64 1082.89
  Q 473.71 1080.90 480.46 1076.98
  Q 483.33 1075.32 484.59 1073.10
  A 1.26 1.26 0.0 0 0 483.46 1071.22
  Q 480.16 1071.29 476.91 1072.89
  Q 454.46 1083.91 433.97 1093.97
  C 426.15 1097.81 417.64 1102.52 411.33 1108.61"
/>
<path stroke="#2e2a25" vector-effect="non-scaling-stroke" d="
  M 445.88 1078.01
  C 439.92 1080.49 434.58 1083.00 430.68 1086.81
  A 0.41 0.41 0.0 0 0 430.89 1087.50
  Q 431.34 1087.59 432.26 1087.44
  C 437.17 1086.63 441.25 1084.61 447.54 1082.00
  C 453.83 1079.38 458.14 1077.91 462.18 1075.00
  Q 462.93 1074.46 463.19 1074.08
  A 0.41 0.41 0.0 0 0 462.84 1073.44
  C 457.39 1073.51 451.85 1075.53 445.88 1078.01"
/>
<path stroke="#2e2a25" vector-effect="non-scaling-stroke" d="
  M 427.29 1115.72
  Q 428.11 1117.45 431.41 1115.92
  Q 458.66 1103.26 485.92 1090.65
  Q 489.88 1088.82 488.71 1086.37
  Q 487.54 1083.93 483.63 1085.86
  Q 456.69 1099.15 429.73 1112.40
  Q 426.47 1114.00 427.29 1115.72"
/>
<path stroke="#2e2a25" vector-effect="non-scaling-stroke" d="
  M 697.36 1120.48
  C 702.75 1119.40 707.30 1112.07 708.98 1107.22
  Q 710.20 1103.69 709.78 1100.17
  A 2.17 2.02 87.8 0 0 707.88 1098.28
  Q 706.25 1098.18 705.42 1100.07
  Q 702.74 1106.22 698.31 1110.36
  Q 694.48 1113.95 694.56 1118.12
  A 2.44 2.34 84.0 0 0 697.36 1120.48"
/>
<path stroke="#2e2a25" vector-effect="non-scaling-stroke" d="
  M 445.36 1119.85
  Q 445.91 1121.07 453.56 1117.95
  Q 479.34 1107.41 481.61 1106.33
  Q 484.59 1104.90 486.97 1101.99
  Q 487.55 1101.27 487.31 1100.74
  Q 487.07 1100.21 486.14 1100.18
  Q 482.39 1100.06 479.35 1101.37
  Q 477.05 1102.38 452.17 1114.91
  Q 444.80 1118.63 445.36 1119.85"
/>
<path stroke="#2e2a25" vector-effect="non-scaling-stroke" d="
  M 712.07 1116.51
  A 0.48 0.48 0.0 0 0 712.80 1117.04
  Q 717.77 1113.57 719.76 1108.14
  A 2.20 2.20 0.0 0 0 718.38 1105.29
  L 718.33 1105.28
  A 2.93 2.92 15.1 0 0 714.84 1107.28
  L 712.07 1116.51"
/>
<path stroke="#2e2a25" vector-effect="non-scaling-stroke" d="
  M 833.13 1107.35
  C 830.30 1109.75 831.25 1116.29 832.73 1119.30
  Q 838.24 1130.51 851.41 1132.84
  Q 851.80 1132.91 851.92 1132.32
  Q 852.00 1131.93 851.60 1131.39
  Q 847.57 1125.98 843.49 1122.03
  C 838.61 1117.29 836.34 1113.92 834.67 1107.83
  A 0.96 0.95 62.2 0 0 833.13 1107.35"
/>
<path stroke="#2e2a25" vector-effect="non-scaling-stroke" d="
  M 475.24 1120.24
  A 2.84 2.84 0.0 0 0 472.40 1117.40
  A 2.84 2.84 0.0 0 0 469.56 1120.24
  A 2.84 2.84 0.0 0 0 472.40 1123.08
  A 2.84 2.84 0.0 0 0 475.24 1120.24"
/>
<path stroke="#2e2a25" vector-effect="non-scaling-stroke" d="
  M 838.51 1135.77
  A 0.64 0.63 77.8 0 0 839.03 1134.96
  C 837.98 1131.29 834.18 1123.86 829.74 1123.80
  A 2.25 2.14 9.3 0 0 827.61 1125.25
  C 825.80 1130.57 833.69 1136.44 838.51 1135.77"
/>
<path stroke="#2e2a25" vector-effect="non-scaling-stroke" d="
  M 365.15 1283.58
  A 3.21 3.21 0.0 0 0 361.94 1280.37
  A 3.21 3.21 0.0 0 0 358.73 1283.58
  A 3.21 3.21 0.0 0 0 361.94 1286.79
  A 3.21 3.21 0.0 0 0 365.15 1283.58"
/>
<path stroke="#2e2a25" vector-effect="non-scaling-stroke" d="
  M 340.38 1285.11
  Q 340.11 1285.56 340.35 1286.14
  Q 341.35 1288.48 343.43 1290.58
  C 350.13 1297.36 355.64 1300.70 365.73 1306.75
  C 368.01 1308.12 374.03 1309.69 375.71 1306.98
  C 377.39 1304.27 373.30 1299.59 371.05 1298.15
  C 361.14 1291.82 355.69 1288.37 346.64 1285.40
  Q 343.83 1284.47 341.29 1284.63
  Q 340.66 1284.66 340.38 1285.11"
/>
<path stroke="#2e2a25" vector-effect="non-scaling-stroke" d="
  M 358.77 1317.36
  C 358.18 1315.00 356.72 1312.49 354.76 1311.04
  C 351.56 1308.66 342.05 1302.47 338.22 1303.35
  A 0.97 0.97 0.0 0 0 337.55 1304.68
  C 339.15 1308.40 344.91 1312.14 348.47 1315.03
  C 350.90 1316.99 354.78 1319.28 358.02 1318.57
  A 0.99 0.99 0.0 0 0 358.77 1317.36"
/>
<path stroke="#2e2a25" vector-effect="non-scaling-stroke" d="
  M 949.55 1326.88
  Q 949.94 1327.33 950.61 1327.09
  Q 955.51 1325.35 960.10 1322.10
  C 967.29 1317.00 973.01 1312.98 976.43 1305.97
  Q 977.11 1304.57 976.65 1304.03
  Q 976.20 1303.49 974.70 1303.92
  C 967.21 1306.11 962.29 1311.06 956.04 1317.29
  Q 952.06 1321.26 949.52 1325.80
  Q 949.17 1326.42 949.55 1326.88"
/>
<path stroke="#2e2a25" vector-effect="non-scaling-stroke" d="
  M 949.15 1344.87
  A 1.99 1.49 -25.9 0 0 951.45 1345.31
  Q 955.91 1343.39 960.43 1339.95
  Q 967.99 1334.20 977.16 1325.83
  C 982.81 1320.67 986.97 1316.96 989.24 1310.79
  A 0.99 0.98 1.1 0 0 988.01 1309.52
  C 981.12 1311.73 975.77 1316.30 969.93 1321.69
  C 962.84 1328.24 955.98 1334.10 949.73 1341.71
  Q 948.31 1343.43 949.15 1344.87"
/>
<path stroke="#2e2a25" vector-effect="non-scaling-stroke" d="
  M 336.01 1316.73
  Q 335.13 1318.26 338.02 1320.25
  Q 341.21 1322.45 345.71 1323.32
  Q 346.99 1323.56 347.21 1323.17
  Q 347.43 1322.79 346.58 1321.81
  Q 343.57 1318.35 340.06 1316.70
  Q 336.89 1315.20 336.01 1316.73"
/>
<path stroke="#2e2a25" vector-effect="non-scaling-stroke" d="
  M 973.54 1355.80
  Q 973.92 1356.25 974.96 1355.98
  Q 977.50 1355.34 980.62 1353.11
  Q 987.26 1348.35 994.12 1343.16
  C 997.67 1340.48 1000.33 1337.21 1002.56 1333.52
  Q 1003.50 1331.96 1003.08 1331.45
  Q 1002.66 1330.95 1000.95 1331.57
  C 996.91 1333.05 993.19 1335.04 989.88 1338.01
  Q 983.47 1343.76 977.53 1349.36
  Q 974.75 1352.00 973.63 1354.37
  Q 973.17 1355.35 973.54 1355.80"
/>
<path stroke="#2e2a25" vector-effect="non-scaling-stroke" d="
  M 984.0702 1332.1213
  A 6.28 2.49 -43.7 0 0 977.8097 1334.6598
  A 6.28 2.49 -43.7 0 0 974.9898 1340.7987
  A 6.28 2.49 -43.7 0 0 981.2503 1338.2602
  A 6.28 2.49 -43.7 0 0 984.0702 1332.1213"
/>
<path stroke="#2e2a25" vector-effect="non-scaling-stroke" d="
  M 813.54 1691.18
  Q 813.99 1691.45 814.42 1691.11
  C 817.39 1688.76 819.65 1686.43 821.79 1683.28
  Q 830.07 1671.10 839.98 1654.55
  C 843.36 1648.90 845.28 1645.88 845.31 1640.29
  Q 845.31 1639.07 844.82 1638.78
  Q 844.33 1638.49 843.26 1639.07
  C 838.35 1641.74 836.60 1644.87 833.24 1650.52
  Q 823.37 1667.10 816.58 1680.17
  C 814.82 1683.55 813.84 1686.64 813.18 1690.37
  Q 813.09 1690.91 813.54 1691.18"
/>
<path stroke="#2e2a25" vector-effect="non-scaling-stroke" d="
  M 802.75 1681.80
  Q 805.25 1679.80 807.23 1676.98
  Q 813.57 1667.98 821.40 1657.18
  Q 826.64 1649.96 826.67 1641.30
  A 1.01 1.01 0.0 0 0 825.04 1640.50
  Q 819.26 1645.00 815.94 1651.44
  Q 811.91 1659.28 807.09 1668.66
  C 805.10 1672.52 803.70 1676.76 801.87 1680.85
  Q 801.74 1681.14 801.84 1681.50
  A 0.57 0.57 0.0 0 0 802.75 1681.80"
/>
<path stroke="#2e2a25" vector-effect="non-scaling-stroke" d="
  M 836.98 1675.44
  Q 838.56 1676.56 840.81 1673.82
  Q 844.45 1669.39 846.55 1662.71
  Q 846.63 1662.45 846.33 1662.23
  Q 846.03 1662.02 845.80 1662.18
  Q 840.20 1666.38 837.24 1671.28
  Q 835.40 1674.32 836.98 1675.44"
/>
<path stroke="#2e2a25" vector-effect="non-scaling-stroke" d="
  M 1291.17 1768.87
  A 2.23 2.22 -79.4 0 0 1293.72 1767.12
  Q 1298.17 1745.21 1288.07 1724.57
  A 0.45 0.45 0.0 0 0 1287.23 1724.67
  Q 1283.91 1740.06 1284.75 1756.22
  Q 1285.00 1760.92 1283.06 1765.99
  C 1282.63 1767.12 1281.81 1767.88 1280.71 1769.01
  A 0.66 0.66 0.0 0 0 1281.19 1770.13
  L 1283.36 1770.13
  A 1.60 1.57 32.7 0 0 1283.99 1770.00
  Q 1287.89 1768.32 1291.17 1768.87"
/>
<path stroke="#918f8d" vector-effect="non-scaling-stroke" d="
  M 832.6798 991.4199
  A 14.37 13.96 90.2 0 0 846.6899 977.0987
  A 14.37 13.96 90.2 0 0 832.7802 962.6801
  A 14.37 13.96 90.2 0 0 818.7701 977.0013
  A 14.37 13.96 90.2 0 0 832.6798 991.4199"
/>
<path stroke="#918f8d" vector-effect="non-scaling-stroke" d="
  M 826.99 967.95
  Q 823.06 970.24 823.42 974.91
  C 823.51 976.09 824.64 977.47 826.00 977.64
  C 829.99 978.15 830.55 972.07 830.75 969.26
  C 830.88 967.28 828.20 967.25 826.99 967.95"
/>
<path stroke="#918f8d" vector-effect="non-scaling-stroke" d="
  M 828.40 982.07
  A 2.56 2.56 0.0 0 0 825.84 979.51
  A 2.56 2.56 0.0 0 0 823.28 982.07
  A 2.56 2.56 0.0 0 0 825.84 984.63
  A 2.56 2.56 0.0 0 0 828.40 982.07"
/>
<path stroke="#918f8d" vector-effect="non-scaling-stroke" d="
  M 751.1799 1000.5188
  A 16.75 16.28 79.3 0 0 764.0669 981.0373
  A 16.75 16.28 79.3 0 0 744.9601 967.6012
  A 16.75 16.28 79.3 0 0 732.0731 987.0827
  A 16.75 16.28 79.3 0 0 751.1799 1000.5188"
/>
<path stroke="#918f8d" vector-effect="non-scaling-stroke" d="
  M 752.59 972.36
  C 751.03 971.83 747.96 972.49 748.57 974.73
  C 749.44 977.92 751.49 984.78 755.96 983.27
  C 757.48 982.76 758.46 980.91 758.29 979.53
  Q 757.63 974.08 752.59 972.36"
/>
<path stroke="#918f8d" vector-effect="non-scaling-stroke" d="
  M 760.06 988.28
  A 2.95 2.95 0.0 0 0 757.11 985.33
  A 2.95 2.95 0.0 0 0 754.16 988.28
  A 2.95 2.95 0.0 0 0 757.11 991.23
  A 2.95 2.95 0.0 0 0 760.06 988.28"
/>
<path stroke="#50372c" vector-effect="non-scaling-stroke" d="
  M 884.00 1075.31
  L 883.84 1077.36"
/>
<path stroke="#50372c" vector-effect="non-scaling-stroke" d="
  M 304.61 1296.61
  L 306.58 1301.73"
/>
<path stroke="#50372c" vector-effect="non-scaling-stroke" d="
  M 213.70 1603.08
  L 216.02 1604.36
  A 2.10 2.09 -76.4 0 1 217.12 1606.17
  C 217.40 1621.48 232.38 1633.55 246.82 1624.23
  A 1.10 1.09 -36.2 0 1 248.26 1624.45
  C 256.23 1634.12 269.21 1628.17 275.58 1620.06
  C 277.75 1617.31 279.03 1613.75 282.64 1611.25"
/>
<path stroke="#50372c" vector-effect="non-scaling-stroke" d="
  M 441.46 1327.27
  Q 442.24 1326.96 442.71 1327.16"
/>
<path stroke="#5c4236" vector-effect="non-scaling-stroke" d="
  M 442.71 1327.16
  Q 454.43 1326.91 467.44 1324.46
  Q 502.56 1317.84 533.55 1309.52
  C 550.81 1304.89 571.43 1300.83 580.07 1282.25
  Q 581.86 1278.39 583.26 1275.21"
/>
<path stroke="#50372c" vector-effect="non-scaling-stroke" d="
  M 583.26 1275.21
  Q 584.47 1273.84 585.60 1273.86"
/>
<path stroke="#50372c" vector-effect="non-scaling-stroke" d="
  M 688.17 1435.71
  L 689.21 1440.53"
/>
<path stroke="#50372c" vector-effect="non-scaling-stroke" d="
  M 690.96 1450.05
  L 693.76 1462.70"
/>
<path stroke="#50372c" vector-effect="non-scaling-stroke" d="
  M 696.36 1476.34
  L 698.64 1486.25"
/>
<path stroke="#50372c" vector-effect="non-scaling-stroke" d="
  M 790.38 1877.66
  L 794.43 1879.14
  A 2.57 2.57 0.0 0 1 795.95 1880.69
  Q 800.18 1892.74 811.41 1899.87
  Q 817.68 1903.85 823.33 1904.68
  C 829.60 1905.60 833.96 1904.39 839.15 1900.78
  A 1.97 1.96 39.2 0 1 841.06 1900.59
  C 846.35 1902.91 850.99 1902.95 856.50 1900.74
  Q 864.14 1897.68 869.64 1892.14
  Q 885.47 1876.24 887.41 1853.73
  Q 887.64 1851.08 888.25 1842.50
  A 3.58 3.54 -28.3 0 1 888.71 1841.00
  L 891.29 1836.64"
/>
<path stroke="#50372c" vector-effect="non-scaling-stroke" d="
  M 1247.72 1766.04
  L 1260.63 1769.45"
/>
<path stroke="#50372c" vector-effect="non-scaling-stroke" d="
  M 1306.23 1762.57
  Q 1312.64 1755.79 1316.17 1747.54"
/>
<path stroke="#2e2a25" vector-effect="non-scaling-stroke" d="
  M 583.26 1275.21
  Q 581.84 1272.33 580.70 1269.38
  Q 579.11 1265.26 578.08 1263.71
  C 569.74 1251.21 554.82 1248.07 540.63 1252.20
  Q 534.89 1253.87 528.07 1257.11
  Q 509.36 1266.01 491.43 1274.19
  C 473.31 1282.46 460.96 1296.98 451.17 1313.92
  Q 449.96 1316.01 443.67 1325.74
  Q 443.26 1326.37 442.71 1327.16"
/>
<path stroke="#2e2a25" vector-effect="non-scaling-stroke" d="
  M 540.30 1261.22
  C 542.18 1265.50 547.97 1263.67 550.50 1261.23
  C 556.50 1255.41 548.55 1248.04 543.61 1253.61
  C 541.83 1255.62 539.32 1258.98 540.30 1261.22"
/>
<path stroke="#2e2a25" vector-effect="non-scaling-stroke" d="
  M 553.09 1267.58
  C 555.91 1272.24 570.93 1266.13 566.81 1259.29
  C 562.68 1252.46 550.28 1262.92 553.09 1267.58"
/>
<path stroke="#2e2a25" vector-effect="non-scaling-stroke" d="
  M 524.01 1282.00
  C 523.45 1285.31 521.99 1289.37 524.64 1292.57
  C 527.64 1296.18 533.05 1296.17 536.97 1293.95
  C 545.66 1289.04 551.72 1278.19 543.95 1269.38
  C 539.32 1264.12 529.98 1263.76 523.92 1265.98
  C 516.83 1268.59 518.72 1274.73 522.92 1278.71
  A 3.69 3.68 -63.5 0 1 524.01 1282.00"
/>
<path stroke="#2e2a25" vector-effect="non-scaling-stroke" d="
  M 556.61 1276.17
  C 555.13 1278.20 556.51 1281.22 558.69 1281.89
  Q 563.04 1283.23 568.36 1282.20
  C 572.03 1281.49 574.15 1278.19 572.26 1274.97
  C 568.75 1269.00 559.88 1271.69 556.61 1276.17"
/>
<path stroke="#2e2a25" vector-effect="non-scaling-stroke" d="
  M 562.5430 1294.5883
  A 6.12 5.30 28.8 0 0 559.7333 1286.9956
  A 6.12 5.30 28.8 0 0 551.8170 1288.6917
  A 6.12 5.30 28.8 0 0 554.6267 1296.2844
  A 6.12 5.30 28.8 0 0 562.5430 1294.5883"
/>
</g>
<path fill="#ffccb8" d="
  M 1414.00 0.00
  L 1414.00 1475.74
  L 884.00 1075.31
  L 883.13 1067.47
  C 881.62 1051.99 882.64 1039.92 883.34 1020.75
  Q 883.68 1011.46 882.14 996.70
  C 881.13 986.95 877.38 972.12 876.48 962.50
  C 874.78 944.49 879.40 924.97 881.22 908.75
  C 881.98 902.01 882.23 893.59 879.49 887.06
  C 876.32 879.50 868.10 876.54 860.54 878.81
  C 851.71 881.47 843.33 888.37 836.63 894.66
  Q 836.11 895.15 817.38 913.09
  Q 807.36 922.70 792.94 923.17
  Q 774.83 923.77 755.52 922.11
  C 743.80 921.10 734.75 918.71 726.37 912.35
  C 711.00 900.68 699.89 891.31 684.57 884.95
  C 672.40 879.89 657.75 879.85 650.66 892.05
  C 643.98 903.57 647.41 921.47 650.47 933.78
  Q 654.65 950.62 657.02 960.49
  Q 661.88 980.75 661.87 1003.00
  Q 661.87 1010.92 661.48 1019.18
  Q 661.56 1020.70 657.10 1021.06
  C 649.30 1022.46 641.15 1023.80 633.65 1025.42
  Q 605.92 1031.40 597.44 1032.94
  C 539.56 1043.46 498.17 1050.19 450.34 1065.35
  C 417.69 1075.70 385.57 1089.36 356.69 1107.92
  Q 338.31 1119.72 322.45 1135.67
  Q 287.43 1170.87 285.66 1220.70
  Q 285.63 1221.33 284.94 1221.88
  L 0.57 1471.42
  A 0.49 0.38 -88.9 0 0 0.44 1471.58
  Q 0.15 1472.21 0.00 1472.10
  L 0.00 0.00
  L 1414.00 0.00
  Z"
/>
<path fill="#3a352f" d="
  M 883.13 1067.47
  Q 881.49 1067.01 880.54 1068.78
  Q 875.16 1078.80 870.36 1088.60
  A 0.52 0.52 0.0 0 0 871.10 1089.27
  Q 878.66 1084.50 883.84 1077.36
  Q 885.32 1084.33 886.43 1091.05
  Q 886.66 1092.41 887.08 1093.44
  C 889.10 1098.34 891.92 1103.28 894.98 1109.52
  Q 898.13 1115.94 901.38 1123.54
  Q 914.78 1154.87 935.88 1194.63
  Q 954.56 1229.84 972.16 1255.03
  C 987.13 1276.45 1006.57 1300.14 1021.31 1319.29
  C 1042.15 1346.36 1061.06 1374.59 1078.63 1400.37
  C 1101.34 1433.69 1120.95 1458.45 1149.59 1495.44
  Q 1158.64 1507.14 1177.96 1533.51
  Q 1181.11 1537.80 1184.11 1540.88
  C 1188.82 1545.71 1191.74 1549.17 1194.39 1553.20
  Q 1213.59 1582.44 1232.60 1609.14
  Q 1246.77 1629.05 1264.62 1646.12
  C 1283.44 1664.12 1292.36 1671.55 1304.18 1685.80
  C 1318.60 1703.19 1325.18 1725.57 1316.17 1747.54
  Q 1312.39 1734.13 1309.70 1727.57
  Q 1306.57 1719.95 1301.27 1713.93
  A 0.42 0.42 0.0 0 0 1300.54 1714.16
  C 1299.80 1720.91 1300.11 1726.58 1301.95 1734.01
  Q 1304.57 1744.61 1305.67 1749.59
  Q 1307.00 1755.65 1305.06 1761.67
  A 0.74 0.74 0.0 0 0 1305.87 1762.63
  L 1306.23 1762.57
  Q 1300.70 1768.16 1293.74 1768.94
  Q 1283.99 1770.04 1281.78 1770.85
  A 3.75 3.65 33.3 0 1 1280.64 1771.07
  Q 1270.62 1771.43 1261.39 1769.76
  A 0.84 0.84 0.0 0 1 1260.96 1769.53
  Q 1260.69 1769.26 1260.63 1769.45
  L 1261.44 1769.13
  A 0.85 0.85 0.0 0 0 1261.96 1768.41
  C 1262.72 1759.89 1260.27 1750.36 1259.23 1743.20
  C 1258.55 1738.45 1256.97 1734.40 1254.86 1730.50
  A 0.72 0.72 0.0 0 0 1253.53 1730.65
  C 1251.97 1736.25 1250.85 1740.68 1250.30 1746.83
  Q 1249.43 1756.52 1247.72 1766.04
  Q 1235.17 1765.32 1226.54 1759.74
  Q 1215.50 1752.60 1204.84 1739.67
  C 1193.49 1725.89 1184.26 1710.52 1175.32 1694.69
  Q 1164.70 1675.88 1155.13 1658.52
  Q 1139.15 1629.52 1119.77 1602.82
  C 1113.96 1594.82 1104.84 1584.62 1099.52 1577.52
  Q 1094.71 1571.12 1088.78 1565.54
  Q 1071.47 1549.27 1061.75 1541.54
  Q 1035.87 1520.94 1026.24 1512.91
  Q 995.32 1487.11 969.91 1452.73
  Q 955.62 1433.40 935.93 1405.34
  Q 916.82 1378.10 894.70 1353.56
  Q 879.02 1336.17 860.58 1322.20
  C 848.99 1313.43 825.75 1299.17 811.32 1307.53
  C 803.43 1312.11 799.57 1321.71 797.91 1329.96
  C 794.80 1345.42 795.68 1361.42 797.42 1378.01
  Q 798.46 1387.94 799.85 1395.94
  Q 806.71 1435.24 818.90 1474.83
  C 829.98 1510.80 842.20 1545.39 854.22 1586.23
  C 859.79 1605.14 869.89 1642.14 878.41 1667.82
  C 885.63 1689.58 893.10 1710.29 898.83 1733.14
  C 906.97 1765.55 907.30 1799.32 894.78 1830.64
  C 893.98 1832.63 892.51 1834.74 891.29 1836.64
  Q 888.65 1825.14 884.34 1814.42
  Q 882.46 1809.76 879.13 1805.57
  A 0.50 0.49 36.3 0 0 878.28 1805.70
  Q 874.92 1814.49 876.23 1824.00
  Q 877.42 1832.60 877.92 1842.24
  Q 878.75 1858.29 873.62 1873.31
  Q 870.27 1883.11 867.01 1889.74
  C 864.27 1895.33 857.02 1902.87 852.80 1892.70
  C 849.50 1884.73 847.62 1871.88 846.23 1866.31
  Q 843.89 1856.93 839.10 1848.42
  A 0.42 0.42 0.0 0 0 838.32 1848.54
  C 836.71 1856.03 835.41 1862.74 835.66 1871.55
  Q 835.87 1878.47 835.81 1886.00
  C 835.79 1888.87 835.13 1895.99 831.44 1896.39
  Q 825.23 1897.06 819.81 1893.43
  A 5.62 5.12 82.7 0 1 818.94 1892.69
  Q 814.54 1887.98 810.02 1883.50
  C 807.16 1880.67 803.57 1875.81 803.24 1871.75
  Q 802.83 1866.54 803.64 1858.84
  Q 804.58 1849.97 806.85 1836.48
  A 1.10 1.08 -88.1 0 0 805.67 1835.20
  Q 804.91 1835.28 804.47 1836.10
  Q 804.20 1836.61 804.03 1836.88
  Q 792.17 1855.12 790.38 1877.66
  Q 781.23 1873.99 775.13 1866.61
  C 748.99 1835.01 751.59 1791.23 751.69 1753.52
  Q 751.81 1708.76 742.95 1664.92
  Q 741.84 1659.40 740.93 1652.52
  Q 739.60 1642.48 739.00 1640.08
  Q 726.20 1588.38 723.76 1580.52
  C 714.19 1549.70 705.28 1518.24 698.64 1486.25
  L 712.95 1490.14
  A 0.72 0.72 0.0 0 0 713.71 1489.00
  Q 707.35 1480.68 697.70 1475.38
  A 0.73 0.73 0.0 0 0 696.69 1475.69
  L 696.36 1476.34
  L 693.76 1462.70
  Q 698.00 1465.12 701.92 1467.40
  C 708.44 1471.20 713.86 1473.43 720.58 1474.49
  A 0.80 0.80 0.0 0 0 721.40 1473.30
  Q 716.36 1464.79 707.79 1459.20
  Q 700.12 1454.21 691.50 1449.09
  A 0.25 0.24 9.5 0 0 691.13 1449.35
  Q 691.19 1449.65 690.96 1450.05
  L 689.21 1440.53
  L 700.80 1444.98
  A 0.34 0.34 0.0 0 0 701.15 1444.41
  L 690.28 1434.58
  A 1.25 1.24 -53.7 0 0 688.37 1434.88
  Q 688.23 1435.09 688.17 1435.71
  Q 680.06 1393.45 676.66 1370.28
  Q 669.29 1320.12 668.78 1316.99
  Q 667.03 1306.22 664.87 1298.13
  C 660.43 1281.54 652.20 1273.23 634.49 1272.20
  Q 623.83 1271.58 619.32 1272.04
  Q 602.42 1273.80 585.60 1273.86
  C 587.12 1262.94 581.74 1253.91 572.47 1248.28
  C 557.76 1239.35 540.23 1243.13 524.92 1250.62
  C 514.82 1255.55 503.67 1260.52 488.95 1267.69
  C 465.01 1279.35 448.35 1302.62 438.72 1326.78
  A 0.42 0.42 0.0 0 0 439.12 1327.36
  L 441.46 1327.27
  C 439.11 1327.76 435.33 1332.42 433.43 1334.78
  Q 396.87 1380.29 361.17 1429.93
  Q 355.40 1437.95 344.67 1454.91
  Q 322.52 1489.89 313.72 1529.22
  C 308.39 1553.05 304.63 1573.65 295.26 1594.01
  C 292.12 1600.83 288.49 1606.64 282.64 1611.25
  C 282.45 1608.98 281.68 1606.80 281.48 1604.66
  Q 280.56 1594.96 281.03 1585.69
  C 281.24 1581.48 281.04 1576.61 280.80 1572.96
  A 0.44 0.44 0.0 0 0 279.97 1572.79
  Q 273.55 1585.59 269.52 1599.73
  Q 267.37 1607.26 260.98 1611.24
  A 1.61 1.61 0.0 0 1 258.65 1610.52
  Q 257.86 1608.71 257.83 1605.98
  Q 257.73 1594.66 259.97 1582.96
  A 0.40 0.40 0.0 0 0 259.27 1582.63
  Q 256.19 1586.40 249.59 1595.85
  C 246.85 1599.77 234.86 1616.05 230.62 1606.34
  C 227.82 1599.94 230.63 1590.84 233.01 1584.24
  Q 236.17 1575.45 236.78 1565.01
  A 0.49 0.48 -20.9 0 0 235.95 1564.64
  Q 227.90 1572.86 222.72 1584.15
  Q 218.38 1593.61 213.70 1603.08
  C 191.13 1588.76 210.04 1536.09 218.44 1516.67
  Q 229.29 1491.58 233.86 1480.09
  C 239.85 1465.03 246.00 1441.93 251.54 1427.36
  Q 259.96 1405.18 269.45 1386.47
  Q 283.74 1358.30 287.53 1349.74
  Q 297.97 1326.20 306.58 1301.73
  Q 306.78 1302.39 307.15 1302.58
  Q 307.87 1302.94 308.21 1302.25
  Q 313.98 1290.37 318.97 1278.99
  C 332.57 1247.99 342.08 1213.10 339.70 1179.45
  Q 339.42 1175.59 338.69 1172.49
  A 0.43 0.43 0.0 0 0 337.88 1172.42
  C 336.91 1174.72 335.62 1177.64 335.00 1180.36
  Q 331.16 1197.37 328.86 1210.56
  C 323.77 1239.89 314.36 1268.38 304.61 1296.61
  Q 294.86 1277.60 289.94 1256.81
  Q 285.96 1239.99 285.79 1223.50
  Q 285.78 1222.13 284.94 1221.88
  Q 285.63 1221.33 285.66 1220.70
  Q 287.43 1170.87 322.45 1135.67
  Q 338.31 1119.72 356.69 1107.92
  C 385.57 1089.36 417.69 1075.70 450.34 1065.35
  C 498.17 1050.19 539.56 1043.46 597.44 1032.94
  Q 605.92 1031.40 633.65 1025.42
  C 641.15 1023.80 649.30 1022.46 657.10 1021.06
  Q 658.58 1022.86 658.56 1024.95
  Q 658.41 1041.97 664.97 1057.28
  C 669.28 1067.33 674.16 1075.62 682.59 1082.23
  A 0.49 0.49 0.0 0 0 683.38 1081.91
  Q 683.43 1081.50 683.21 1080.76
  Q 680.46 1071.24 676.11 1063.54
  C 668.38 1049.88 665.62 1036.09 663.84 1020.93
  Q 663.51 1018.17 661.48 1019.18
  Q 661.87 1010.92 661.87 1003.00
  Q 661.88 980.75 657.02 960.49
  Q 654.65 950.62 650.47 933.78
  C 647.41 921.47 643.98 903.57 650.66 892.05
  C 657.75 879.85 672.40 879.89 684.57 884.95
  C 699.89 891.31 711.00 900.68 726.37 912.35
  C 734.75 918.71 743.80 921.10 755.52 922.11
  Q 774.83 923.77 792.94 923.17
  Q 807.36 922.70 817.38 913.09
  Q 836.11 895.15 836.63 894.66
  C 843.33 888.37 851.71 881.47 860.54 878.81
  C 868.10 876.54 876.32 879.50 879.49 887.06
  C 882.23 893.59 881.98 902.01 881.22 908.75
  C 879.40 924.97 874.78 944.49 876.48 962.50
  C 877.38 972.12 881.13 986.95 882.14 996.70
  Q 883.68 1011.46 883.34 1020.75
  C 882.64 1039.92 881.62 1051.99 883.13 1067.47
  Z
  M 838.81 928.03
  Q 834.26 933.26 830.82 940.09
  C 829.88 941.95 828.21 948.05 830.88 949.26
  A 0.54 0.53 -72.8 0 0 831.63 948.86
  Q 833.19 940.47 839.14 933.19
  L 840.20 934.83
  A 1.93 1.88 -2.3 0 0 840.91 935.47
  C 846.96 938.61 857.53 940.59 860.42 931.95
  C 863.20 923.61 863.77 916.76 864.80 906.75
  Q 865.21 902.87 864.25 901.39
  C 859.42 893.90 853.23 901.95 850.06 906.56
  Q 842.77 917.15 838.81 928.03
  Z
  M 704.66 944.60
  C 711.27 940.04 715.71 935.34 709.67 928.28
  Q 705.81 923.76 698.58 917.38
  Q 688.50 908.48 684.72 905.79
  C 680.08 902.49 674.76 899.99 670.76 904.91
  C 665.84 910.97 673.81 930.16 676.56 937.23
  Q 678.78 942.94 681.45 947.60
  C 686.49 956.37 698.91 948.57 704.66 944.60
  Z
  M 762.20 956.00
  C 763.53 950.03 757.56 944.15 752.73 941.24
  Q 745.35 936.78 735.89 935.60
  Q 731.93 935.11 728.45 936.94
  A 0.25 0.25 0.0 0 0 728.59 937.41
  C 730.67 937.20 732.49 937.21 734.34 937.98
  C 745.70 942.75 754.78 946.76 761.61 956.12
  A 0.33 0.33 0.0 0 0 762.20 956.00
  Z
  M 845.11 938.16
  Q 839.16 939.73 835.09 945.65
  A 4.53 4.48 -33.8 0 0 834.39 949.09
  L 834.45 949.39
  A 0.96 0.96 0.0 0 0 836.08 949.87
  C 838.69 947.23 841.10 941.78 845.37 938.71
  A 0.31 0.31 0.0 0 0 845.11 938.16
  Z
  M 740.75 949.34
  L 751.52 951.86
  A 0.15 0.15 0.0 0 0 751.70 951.75
  L 751.72 951.68
  A 5.56 1.28 13.2 0 0 746.60 949.17
  L 746.36 949.11
  A 5.56 1.28 13.2 0 0 740.66 949.09
  L 740.64 949.16
  A 0.15 0.15 0.0 0 0 740.75 949.34
  Z
  M 832.5327 994.8990
  A 17.89 17.41 90.6 0 0 850.1290 977.1923
  A 17.89 17.41 90.6 0 0 832.9073 959.1210
  A 17.89 17.41 90.6 0 0 815.3110 976.8277
  A 17.89 17.41 90.6 0 0 832.5327 994.8990
  Z
  M 752.0879 1004.5096
  A 20.87 20.29 78.9 0 0 767.9804 980.1237
  A 20.87 20.29 78.9 0 0 744.0521 963.5504
  A 20.87 20.29 78.9 0 0 728.1596 987.9363
  A 20.87 20.29 78.9 0 0 752.0879 1004.5096
  Z
  M 842.02 1008.86
  Q 841.38 1012.39 842.05 1015.26
  Q 838.42 1015.11 834.98 1016.30
  A 1.23 1.23 0.0 0 0 834.60 1018.41
  Q 835.39 1019.06 836.77 1018.95
  Q 839.13 1018.77 841.49 1018.11
  Q 843.36 1017.75 842.24 1021.28
  L 834.90 1022.46
  A 0.71 0.71 0.0 0 0 834.67 1023.79
  Q 836.42 1024.73 838.74 1025.07
  Q 844.20 1025.86 849.24 1026.19
  Q 854.14 1029.26 859.21 1026.20
  L 875.22 1024.72
  A 0.33 0.33 0.0 0 0 875.24 1024.07
  L 865.56 1022.50
  Q 871.20 1010.24 860.29 1002.41
  L 869.51 996.69
  A 0.44 0.44 0.0 0 0 869.25 995.88
  C 858.76 996.66 851.68 1000.62 837.64 1006.88
  Q 834.46 1008.29 832.13 1010.17
  A 0.61 0.61 0.0 0 0 832.66 1011.23
  L 842.02 1008.86
  Z
  M 806.11 1039.24
  A 0.51 0.51 0.0 0 1 806.83 1039.24
  Q 812.69 1045.14 820.89 1048.12
  C 822.81 1048.82 824.95 1048.69 826.07 1046.87
  C 827.38 1044.74 825.19 1042.33 823.45 1041.28
  C 817.52 1037.72 811.55 1035.16 810.34 1028.15
  Q 810.27 1027.76 808.81 1016.67
  A 0.93 0.93 0.0 0 1 809.19 1015.78
  C 812.61 1013.30 817.40 1009.86 819.48 1006.65
  C 822.50 1001.98 820.93 996.77 814.72 996.36
  Q 809.29 996.00 800.79 996.82
  C 797.30 997.16 788.14 998.73 786.82 1002.17
  Q 784.88 1007.22 789.57 1009.22
  Q 797.34 1012.52 802.26 1015.17
  A 1.98 1.98 0.0 0 1 803.29 1017.15
  Q 803.24 1017.61 801.75 1030.49
  C 801.27 1034.58 793.21 1039.85 786.34 1045.08
  Q 782.85 1047.73 785.41 1050.55
  A 3.26 3.07 -32.8 0 0 789.09 1051.23
  Q 798.16 1047.10 806.11 1039.24
  Z
  M 728.47 1017.81
  Q 727.01 1019.60 726.20 1021.18
  Q 720.47 1032.41 728.41 1042.17
  L 708.17 1049.74
  A 0.03 0.02 -31.7 0 0 708.16 1049.76
  L 708.24 1050.00
  A 0.27 0.26 -14.8 0 0 708.56 1050.18
  L 731.45 1044.44
  Q 735.98 1047.37 740.75 1047.26
  Q 751.15 1047.03 754.99 1037.54
  L 772.15 1030.94
  A 0.64 0.64 0.0 0 0 772.56 1030.34
  L 772.56 1029.83
  A 0.47 0.46 -6.9 0 0 771.98 1029.38
  L 756.59 1033.10
  Q 757.13 1031.56 756.89 1029.53
  Q 756.10 1022.57 752.05 1017.91
  Q 759.97 1018.32 767.87 1017.60
  Q 768.43 1017.55 768.61 1017.32
  A 0.40 0.40 0.0 0 0 768.38 1016.68
  Q 762.17 1015.43 756.65 1014.91
  C 739.20 1013.28 719.59 1012.52 702.74 1015.23
  A 0.41 0.40 45.1 0 0 702.74 1016.03
  Q 715.51 1018.19 728.47 1017.81
  Z
  M 767.66 1025.33
  L 767.51 1023.68
  A 0.51 0.51 0.0 0 0 766.96 1023.22
  L 764.30 1023.47
  A 7.08 1.27 -5.3 0 0 757.37 1025.38
  L 757.38 1025.52
  A 7.08 1.27 -5.3 0 0 764.55 1026.13
  L 767.20 1025.89
  A 0.51 0.51 0.0 0 0 767.66 1025.33
  Z
  M 411.33 1108.61
  A 0.52 0.52 0.0 0 0 411.83 1109.49
  Q 414.63 1108.73 419.08 1106.77
  Q 435.86 1099.36 469.64 1082.89
  Q 473.71 1080.90 480.46 1076.98
  Q 483.33 1075.32 484.59 1073.10
  A 1.26 1.26 0.0 0 0 483.46 1071.22
  Q 480.16 1071.29 476.91 1072.89
  Q 454.46 1083.91 433.97 1093.97
  C 426.15 1097.81 417.64 1102.52 411.33 1108.61
  Z
  M 445.88 1078.01
  C 439.92 1080.49 434.58 1083.00 430.68 1086.81
  A 0.41 0.41 0.0 0 0 430.89 1087.50
  Q 431.34 1087.59 432.26 1087.44
  C 437.17 1086.63 441.25 1084.61 447.54 1082.00
  C 453.83 1079.38 458.14 1077.91 462.18 1075.00
  Q 462.93 1074.46 463.19 1074.08
  A 0.41 0.41 0.0 0 0 462.84 1073.44
  C 457.39 1073.51 451.85 1075.53 445.88 1078.01
  Z
  M 427.29 1115.72
  Q 428.11 1117.45 431.41 1115.92
  Q 458.66 1103.26 485.92 1090.65
  Q 489.88 1088.82 488.71 1086.37
  Q 487.54 1083.93 483.63 1085.86
  Q 456.69 1099.15 429.73 1112.40
  Q 426.47 1114.00 427.29 1115.72
  Z
  M 697.36 1120.48
  C 702.75 1119.40 707.30 1112.07 708.98 1107.22
  Q 710.20 1103.69 709.78 1100.17
  A 2.17 2.02 87.8 0 0 707.88 1098.28
  Q 706.25 1098.18 705.42 1100.07
  Q 702.74 1106.22 698.31 1110.36
  Q 694.48 1113.95 694.56 1118.12
  A 2.44 2.34 84.0 0 0 697.36 1120.48
  Z
  M 445.36 1119.85
  Q 445.91 1121.07 453.56 1117.95
  Q 479.34 1107.41 481.61 1106.33
  Q 484.59 1104.90 486.97 1101.99
  Q 487.55 1101.27 487.31 1100.74
  Q 487.07 1100.21 486.14 1100.18
  Q 482.39 1100.06 479.35 1101.37
  Q 477.05 1102.38 452.17 1114.91
  Q 444.80 1118.63 445.36 1119.85
  Z
  M 712.07 1116.51
  A 0.48 0.48 0.0 0 0 712.80 1117.04
  Q 717.77 1113.57 719.76 1108.14
  A 2.20 2.20 0.0 0 0 718.38 1105.29
  L 718.33 1105.28
  A 2.93 2.92 15.1 0 0 714.84 1107.28
  L 712.07 1116.51
  Z
  M 833.13 1107.35
  C 830.30 1109.75 831.25 1116.29 832.73 1119.30
  Q 838.24 1130.51 851.41 1132.84
  Q 851.80 1132.91 851.92 1132.32
  Q 852.00 1131.93 851.60 1131.39
  Q 847.57 1125.98 843.49 1122.03
  C 838.61 1117.29 836.34 1113.92 834.67 1107.83
  A 0.96 0.95 62.2 0 0 833.13 1107.35
  Z
  M 475.24 1120.24
  A 2.84 2.84 0.0 0 0 472.40 1117.40
  A 2.84 2.84 0.0 0 0 469.56 1120.24
  A 2.84 2.84 0.0 0 0 472.40 1123.08
  A 2.84 2.84 0.0 0 0 475.24 1120.24
  Z
  M 838.51 1135.77
  A 0.64 0.63 77.8 0 0 839.03 1134.96
  C 837.98 1131.29 834.18 1123.86 829.74 1123.80
  A 2.25 2.14 9.3 0 0 827.61 1125.25
  C 825.80 1130.57 833.69 1136.44 838.51 1135.77
  Z
  M 365.15 1283.58
  A 3.21 3.21 0.0 0 0 361.94 1280.37
  A 3.21 3.21 0.0 0 0 358.73 1283.58
  A 3.21 3.21 0.0 0 0 361.94 1286.79
  A 3.21 3.21 0.0 0 0 365.15 1283.58
  Z
  M 340.38 1285.11
  Q 340.11 1285.56 340.35 1286.14
  Q 341.35 1288.48 343.43 1290.58
  C 350.13 1297.36 355.64 1300.70 365.73 1306.75
  C 368.01 1308.12 374.03 1309.69 375.71 1306.98
  C 377.39 1304.27 373.30 1299.59 371.05 1298.15
  C 361.14 1291.82 355.69 1288.37 346.64 1285.40
  Q 343.83 1284.47 341.29 1284.63
  Q 340.66 1284.66 340.38 1285.11
  Z
  M 358.77 1317.36
  C 358.18 1315.00 356.72 1312.49 354.76 1311.04
  C 351.56 1308.66 342.05 1302.47 338.22 1303.35
  A 0.97 0.97 0.0 0 0 337.55 1304.68
  C 339.15 1308.40 344.91 1312.14 348.47 1315.03
  C 350.90 1316.99 354.78 1319.28 358.02 1318.57
  A 0.99 0.99 0.0 0 0 358.77 1317.36
  Z
  M 949.55 1326.88
  Q 949.94 1327.33 950.61 1327.09
  Q 955.51 1325.35 960.10 1322.10
  C 967.29 1317.00 973.01 1312.98 976.43 1305.97
  Q 977.11 1304.57 976.65 1304.03
  Q 976.20 1303.49 974.70 1303.92
  C 967.21 1306.11 962.29 1311.06 956.04 1317.29
  Q 952.06 1321.26 949.52 1325.80
  Q 949.17 1326.42 949.55 1326.88
  Z
  M 949.15 1344.87
  A 1.99 1.49 -25.9 0 0 951.45 1345.31
  Q 955.91 1343.39 960.43 1339.95
  Q 967.99 1334.20 977.16 1325.83
  C 982.81 1320.67 986.97 1316.96 989.24 1310.79
  A 0.99 0.98 1.1 0 0 988.01 1309.52
  C 981.12 1311.73 975.77 1316.30 969.93 1321.69
  C 962.84 1328.24 955.98 1334.10 949.73 1341.71
  Q 948.31 1343.43 949.15 1344.87
  Z
  M 336.01 1316.73
  Q 335.13 1318.26 338.02 1320.25
  Q 341.21 1322.45 345.71 1323.32
  Q 346.99 1323.56 347.21 1323.17
  Q 347.43 1322.79 346.58 1321.81
  Q 343.57 1318.35 340.06 1316.70
  Q 336.89 1315.20 336.01 1316.73
  Z
  M 973.54 1355.80
  Q 973.92 1356.25 974.96 1355.98
  Q 977.50 1355.34 980.62 1353.11
  Q 987.26 1348.35 994.12 1343.16
  C 997.67 1340.48 1000.33 1337.21 1002.56 1333.52
  Q 1003.50 1331.96 1003.08 1331.45
  Q 1002.66 1330.95 1000.95 1331.57
  C 996.91 1333.05 993.19 1335.04 989.88 1338.01
  Q 983.47 1343.76 977.53 1349.36
  Q 974.75 1352.00 973.63 1354.37
  Q 973.17 1355.35 973.54 1355.80
  Z
  M 984.0702 1332.1213
  A 6.28 2.49 -43.7 0 0 977.8097 1334.6598
  A 6.28 2.49 -43.7 0 0 974.9898 1340.7987
  A 6.28 2.49 -43.7 0 0 981.2503 1338.2602
  A 6.28 2.49 -43.7 0 0 984.0702 1332.1213
  Z
  M 813.54 1691.18
  Q 813.99 1691.45 814.42 1691.11
  C 817.39 1688.76 819.65 1686.43 821.79 1683.28
  Q 830.07 1671.10 839.98 1654.55
  C 843.36 1648.90 845.28 1645.88 845.31 1640.29
  Q 845.31 1639.07 844.82 1638.78
  Q 844.33 1638.49 843.26 1639.07
  C 838.35 1641.74 836.60 1644.87 833.24 1650.52
  Q 823.37 1667.10 816.58 1680.17
  C 814.82 1683.55 813.84 1686.64 813.18 1690.37
  Q 813.09 1690.91 813.54 1691.18
  Z
  M 802.75 1681.80
  Q 805.25 1679.80 807.23 1676.98
  Q 813.57 1667.98 821.40 1657.18
  Q 826.64 1649.96 826.67 1641.30
  A 1.01 1.01 0.0 0 0 825.04 1640.50
  Q 819.26 1645.00 815.94 1651.44
  Q 811.91 1659.28 807.09 1668.66
  C 805.10 1672.52 803.70 1676.76 801.87 1680.85
  Q 801.74 1681.14 801.84 1681.50
  A 0.57 0.57 0.0 0 0 802.75 1681.80
  Z
  M 836.98 1675.44
  Q 838.56 1676.56 840.81 1673.82
  Q 844.45 1669.39 846.55 1662.71
  Q 846.63 1662.45 846.33 1662.23
  Q 846.03 1662.02 845.80 1662.18
  Q 840.20 1666.38 837.24 1671.28
  Q 835.40 1674.32 836.98 1675.44
  Z
  M 1291.17 1768.87
  A 2.23 2.22 -79.4 0 0 1293.72 1767.12
  Q 1298.17 1745.21 1288.07 1724.57
  A 0.45 0.45 0.0 0 0 1287.23 1724.67
  Q 1283.91 1740.06 1284.75 1756.22
  Q 1285.00 1760.92 1283.06 1765.99
  C 1282.63 1767.12 1281.81 1767.88 1280.71 1769.01
  A 0.66 0.66 0.0 0 0 1281.19 1770.13
  L 1283.36 1770.13
  A 1.60 1.57 32.7 0 0 1283.99 1770.00
  Q 1287.89 1768.32 1291.17 1768.87
  Z"
/>
<path fill="#7e4f3d" d="
  M 839.14 933.19
  Q 842.17 927.54 846.65 922.81
  A 0.33 0.32 6.6 0 0 846.25 922.31
  Q 842.84 924.26 838.81 928.03
  Q 842.77 917.15 850.06 906.56
  C 853.23 901.95 859.42 893.90 864.25 901.39
  Q 865.21 902.87 864.80 906.75
  C 863.77 916.76 863.20 923.61 860.42 931.95
  C 857.53 940.59 846.96 938.61 840.91 935.47
  A 1.93 1.88 -2.3 0 1 840.20 934.83
  L 839.14 933.19
  Z"
/>
<path fill="#7e4f3d" d="
  M 709.67 928.28
  C 715.71 935.34 711.27 940.04 704.66 944.60
  C 698.91 948.57 686.49 956.37 681.45 947.60
  Q 678.78 942.94 676.56 937.23
  C 673.81 930.16 665.84 910.97 670.76 904.91
  C 674.76 899.99 680.08 902.49 684.72 905.79
  Q 688.50 908.48 698.58 917.38
  Q 705.81 923.76 709.67 928.28
  Z"
/>
<path fill="#ffffff" d="
  M 839.14 933.19
  Q 833.19 940.47 831.63 948.86
  A 0.54 0.53 -72.8 0 1 830.88 949.26
  C 828.21 948.05 829.88 941.95 830.82 940.09
  Q 834.26 933.26 838.81 928.03
  Q 842.84 924.26 846.25 922.31
  A 0.33 0.32 6.6 0 1 846.65 922.81
  Q 842.17 927.54 839.14 933.19
  Z"
/>
<path fill="#ffffff" d="
  M 762.20 956.00
  A 0.33 0.33 0.0 0 1 761.61 956.12
  C 754.78 946.76 745.70 942.75 734.34 937.98
  C 732.49 937.21 730.67 937.20 728.59 937.41
  A 0.25 0.25 0.0 0 1 728.45 936.94
  Q 731.93 935.11 735.89 935.60
  Q 745.35 936.78 752.73 941.24
  C 757.56 944.15 763.53 950.03 762.20 956.00
  Z"
/>
<path fill="#ffffff" d="
  M 845.11 938.16
  A 0.31 0.31 0.0 0 1 845.37 938.71
  C 841.10 941.78 838.69 947.23 836.08 949.87
  A 0.96 0.96 0.0 0 1 834.45 949.39
  L 834.39 949.09
  A 4.53 4.48 -33.8 0 1 835.09 945.65
  Q 839.16 939.73 845.11 938.16
  Z"
/>
<path fill="#ffccb8" d="
  M 740.75 949.34
  A 0.15 0.15 0.0 0 1 740.64 949.16
  L 740.66 949.09
  A 5.56 1.28 13.2 0 1 746.36 949.11
  L 746.60 949.17
  A 5.56 1.28 13.2 0 1 751.72 951.68
  L 751.70 951.75
  A 0.15 0.15 0.0 0 1 751.52 951.86
  L 740.75 949.34
  Z"
/>
<path fill="#ffffff" d="
  M 832.5327 994.8990
  A 17.89 17.41 90.6 0 1 815.3110 976.8277
  A 17.89 17.41 90.6 0 1 832.9073 959.1210
  A 17.89 17.41 90.6 0 1 850.1290 977.1923
  A 17.89 17.41 90.6 0 1 832.5327 994.8990
  Z
  M 832.6798 991.4199
  A 14.37 13.96 90.2 0 0 846.6899 977.0987
  A 14.37 13.96 90.2 0 0 832.7802 962.6801
  A 14.37 13.96 90.2 0 0 818.7701 977.0013
  A 14.37 13.96 90.2 0 0 832.6798 991.4199
  Z"
/>
<path fill="#221f1b" d="
  M 832.6798 991.4199
  A 14.37 13.96 90.2 0 1 818.7701 977.0013
  A 14.37 13.96 90.2 0 1 832.7802 962.6801
  A 14.37 13.96 90.2 0 1 846.6899 977.0987
  A 14.37 13.96 90.2 0 1 832.6798 991.4199
  Z
  M 826.99 967.95
  Q 823.06 970.24 823.42 974.91
  C 823.51 976.09 824.64 977.47 826.00 977.64
  C 829.99 978.15 830.55 972.07 830.75 969.26
  C 830.88 967.28 828.20 967.25 826.99 967.95
  Z
  M 828.40 982.07
  A 2.56 2.56 0.0 0 0 825.84 979.51
  A 2.56 2.56 0.0 0 0 823.28 982.07
  A 2.56 2.56 0.0 0 0 825.84 984.63
  A 2.56 2.56 0.0 0 0 828.40 982.07
  Z"
/>
<path fill="#ffffff" d="
  M 752.0879 1004.5096
  A 20.87 20.29 78.9 0 1 728.1596 987.9363
  A 20.87 20.29 78.9 0 1 744.0521 963.5504
  A 20.87 20.29 78.9 0 1 767.9804 980.1237
  A 20.87 20.29 78.9 0 1 752.0879 1004.5096
  Z
  M 751.1799 1000.5188
  A 16.75 16.28 79.3 0 0 764.0669 981.0373
  A 16.75 16.28 79.3 0 0 744.9601 967.6012
  A 16.75 16.28 79.3 0 0 732.0731 987.0827
  A 16.75 16.28 79.3 0 0 751.1799 1000.5188
  Z"
/>
<path fill="#221f1b" d="
  M 751.1799 1000.5188
  A 16.75 16.28 79.3 0 1 732.0731 987.0827
  A 16.75 16.28 79.3 0 1 744.9601 967.6012
  A 16.75 16.28 79.3 0 1 764.0669 981.0373
  A 16.75 16.28 79.3 0 1 751.1799 1000.5188
  Z
  M 752.59 972.36
  C 751.03 971.83 747.96 972.49 748.57 974.73
  C 749.44 977.92 751.49 984.78 755.96 983.27
  C 757.48 982.76 758.46 980.91 758.29 979.53
  Q 757.63 974.08 752.59 972.36
  Z
  M 760.06 988.28
  A 2.95 2.95 0.0 0 0 757.11 985.33
  A 2.95 2.95 0.0 0 0 754.16 988.28
  A 2.95 2.95 0.0 0 0 757.11 991.23
  A 2.95 2.95 0.0 0 0 760.06 988.28
  Z"
/>
<path fill="#ffffff" d="
  M 826.99 967.95
  C 828.20 967.25 830.88 967.28 830.75 969.26
  C 830.55 972.07 829.99 978.15 826.00 977.64
  C 824.64 977.47 823.51 976.09 823.42 974.91
  Q 823.06 970.24 826.99 967.95
  Z"
/>
<path fill="#ffffff" d="
  M 748.57 974.73
  C 747.96 972.49 751.03 971.83 752.59 972.36
  Q 757.63 974.08 758.29 979.53
  C 758.46 980.91 757.48 982.76 755.96 983.27
  C 751.49 984.78 749.44 977.92 748.57 974.73
  Z"
/>
<circle fill="#ffffff" cx="825.84" cy="982.07" r="2.56"/>
<circle fill="#ffffff" cx="757.11" cy="988.28" r="2.95"/>
<path fill="#ffffff" d="
  M 860.29 1002.41
  L 842.02 1008.86
  L 832.66 1011.23
  A 0.61 0.61 0.0 0 1 832.13 1010.17
  Q 834.46 1008.29 837.64 1006.88
  C 851.68 1000.62 858.76 996.66 869.25 995.88
  A 0.44 0.44 0.0 0 1 869.51 996.69
  L 860.29 1002.41
  Z"
/>
<path fill="#221f1b" d="
  M 806.11 1039.24
  Q 798.16 1047.10 789.09 1051.23
  A 3.26 3.07 -32.8 0 1 785.41 1050.55
  Q 782.85 1047.73 786.34 1045.08
  C 793.21 1039.85 801.27 1034.58 801.75 1030.49
  Q 803.24 1017.61 803.29 1017.15
  A 1.98 1.98 0.0 0 0 802.26 1015.17
  Q 797.34 1012.52 789.57 1009.22
  Q 784.88 1007.22 786.82 1002.17
  C 788.14 998.73 797.30 997.16 800.79 996.82
  Q 809.29 996.00 814.72 996.36
  C 820.93 996.77 822.50 1001.98 819.48 1006.65
  C 817.40 1009.86 812.61 1013.30 809.19 1015.78
  A 0.93 0.93 0.0 0 0 808.81 1016.67
  Q 810.27 1027.76 810.34 1028.15
  C 811.55 1035.16 817.52 1037.72 823.45 1041.28
  C 825.19 1042.33 827.38 1044.74 826.07 1046.87
  C 824.95 1048.69 822.81 1048.82 820.89 1048.12
  Q 812.69 1045.14 806.83 1039.24
  A 0.51 0.51 0.0 0 0 806.11 1039.24
  Z"
/>
<path fill="#7e4f3d" d="
  M 860.29 1002.41
  Q 871.20 1010.24 865.56 1022.50
  Q 854.61 1020.73 842.24 1021.28
  Q 843.36 1017.75 841.49 1018.11
  Q 843.10 1017.79 844.16 1016.77
  A 0.60 0.60 0.0 0 0 844.20 1015.93
  Q 843.63 1015.27 842.05 1015.26
  Q 841.38 1012.39 842.02 1008.86
  L 860.29 1002.41
  Z"
/>
<path fill="#ffffff" d="
  M 752.05 1017.91
  L 728.47 1017.81
  Q 715.51 1018.19 702.74 1016.03
  A 0.41 0.40 45.1 0 1 702.74 1015.23
  C 719.59 1012.52 739.20 1013.28 756.65 1014.91
  Q 762.17 1015.43 768.38 1016.68
  A 0.40 0.40 0.0 0 1 768.61 1017.32
  Q 768.43 1017.55 767.87 1017.60
  Q 759.97 1018.32 752.05 1017.91
  Z"
/>
<path fill="#ffffff" d="
  M 842.05 1015.26
  Q 843.63 1015.27 844.20 1015.93
  A 0.60 0.60 0.0 0 1 844.16 1016.77
  Q 843.10 1017.79 841.49 1018.11
  Q 839.13 1018.77 836.77 1018.95
  Q 835.39 1019.06 834.60 1018.41
  A 1.23 1.23 0.0 0 1 834.98 1016.30
  Q 838.42 1015.11 842.05 1015.26
  Z"
/>
<path fill="#7e4f3d" d="
  M 752.05 1017.91
  Q 756.10 1022.57 756.89 1029.53
  Q 757.13 1031.56 756.59 1033.10
  L 728.41 1042.17
  Q 720.47 1032.41 726.20 1021.18
  Q 727.01 1019.60 728.47 1017.81
  L 752.05 1017.91
  Z"
/>
<path fill="#221f1b" d="
  M 657.10 1021.06
  Q 661.56 1020.70 661.48 1019.18
  Q 663.51 1018.17 663.84 1020.93
  C 665.62 1036.09 668.38 1049.88 676.11 1063.54
  Q 680.46 1071.24 683.21 1080.76
  Q 683.43 1081.50 683.38 1081.91
  A 0.49 0.49 0.0 0 1 682.59 1082.23
  C 674.16 1075.62 669.28 1067.33 664.97 1057.28
  Q 658.41 1041.97 658.56 1024.95
  Q 658.58 1022.86 657.10 1021.06
  Z"
/>
<path fill="#ffffff" d="
  M 842.24 1021.28
  Q 854.61 1020.73 865.56 1022.50
  L 875.24 1024.07
  A 0.33 0.33 0.0 0 1 875.22 1024.72
  L 859.21 1026.20
  L 849.24 1026.19
  Q 844.20 1025.86 838.74 1025.07
  Q 836.42 1024.73 834.67 1023.79
  A 0.71 0.71 0.0 0 1 834.90 1022.46
  L 842.24 1021.28
  Z"
/>
<path fill="#ffffff" d="
  M 767.66 1025.33
  A 0.51 0.51 0.0 0 1 767.20 1025.89
  L 764.55 1026.13
  A 7.08 1.27 -5.3 0 1 757.38 1025.52
  L 757.37 1025.38
  A 7.08 1.27 -5.3 0 1 764.30 1023.47
  L 766.96 1023.22
  A 0.51 0.51 0.0 0 1 767.51 1023.68
  L 767.66 1025.33
  Z"
/>
<path fill="#7e4f3d" d="
  M 859.21 1026.20
  Q 854.14 1029.26 849.24 1026.19
  L 859.21 1026.20
  Z"
/>
<path fill="#ffffff" d="
  M 754.99 1037.54
  L 731.45 1044.44
  L 708.56 1050.18
  A 0.27 0.26 -14.8 0 1 708.24 1050.00
  L 708.16 1049.76
  A 0.03 0.02 -31.7 0 1 708.17 1049.74
  L 728.41 1042.17
  L 756.59 1033.10
  L 771.98 1029.38
  A 0.47 0.46 -6.9 0 1 772.56 1029.83
  L 772.56 1030.34
  A 0.64 0.64 0.0 0 1 772.15 1030.94
  L 754.99 1037.54
  Z"
/>
<path fill="#7e4f3d" d="
  M 754.99 1037.54
  Q 751.15 1047.03 740.75 1047.26
  Q 735.98 1047.37 731.45 1044.44
  L 754.99 1037.54
  Z"
/>
<path fill="#221f1b" d="
  M 883.13 1067.47
  L 884.00 1075.31
  L 883.84 1077.36
  Q 878.66 1084.50 871.10 1089.27
  A 0.52 0.52 0.0 0 1 870.36 1088.60
  Q 875.16 1078.80 880.54 1068.78
  Q 881.49 1067.01 883.13 1067.47
  Z"
/>
<path fill="#221f1b" d="
  M 411.33 1108.61
  C 417.64 1102.52 426.15 1097.81 433.97 1093.97
  Q 454.46 1083.91 476.91 1072.89
  Q 480.16 1071.29 483.46 1071.22
  A 1.26 1.26 0.0 0 1 484.59 1073.10
  Q 483.33 1075.32 480.46 1076.98
  Q 473.71 1080.90 469.64 1082.89
  Q 435.86 1099.36 419.08 1106.77
  Q 414.63 1108.73 411.83 1109.49
  A 0.52 0.52 0.0 0 1 411.33 1108.61
  Z"
/>
<path fill="#221f1b" d="
  M 447.54 1082.00
  C 441.25 1084.61 437.17 1086.63 432.26 1087.44
  Q 431.34 1087.59 430.89 1087.50
  A 0.41 0.41 0.0 0 1 430.68 1086.81
  C 434.58 1083.00 439.92 1080.49 445.88 1078.01
  C 451.85 1075.53 457.39 1073.51 462.84 1073.44
  A 0.41 0.41 0.0 0 1 463.19 1074.08
  Q 462.93 1074.46 462.18 1075.00
  C 458.14 1077.91 453.83 1079.38 447.54 1082.00
  Z"
/>
<path fill="#7e4f3d" d="
  M 1414.00 1475.74
  L 1414.00 2222.00
  L 0.00 2222.00
  L 0.00 1472.10
  Q 0.15 1472.21 0.44 1471.58
  A 0.49 0.38 -88.9 0 1 0.57 1471.42
  L 284.94 1221.88
  Q 285.78 1222.13 285.79 1223.50
  Q 285.96 1239.99 289.94 1256.81
  Q 294.86 1277.60 304.61 1296.61
  L 306.58 1301.73
  Q 297.97 1326.20 287.53 1349.74
  Q 283.74 1358.30 269.45 1386.47
  Q 259.96 1405.18 251.54 1427.36
  C 246.00 1441.93 239.85 1465.03 233.86 1480.09
  Q 229.29 1491.58 218.44 1516.67
  C 210.04 1536.09 191.13 1588.76 213.70 1603.08
  L 216.02 1604.36
  A 2.10 2.09 -76.4 0 1 217.12 1606.17
  C 217.40 1621.48 232.38 1633.55 246.82 1624.23
  A 1.10 1.09 -36.2 0 1 248.26 1624.45
  C 256.23 1634.12 269.21 1628.17 275.58 1620.06
  C 277.75 1617.31 279.03 1613.75 282.64 1611.25
  C 288.49 1606.64 292.12 1600.83 295.26 1594.01
  C 304.63 1573.65 308.39 1553.05 313.72 1529.22
  Q 322.52 1489.89 344.67 1454.91
  Q 355.40 1437.95 361.17 1429.93
  Q 396.87 1380.29 433.43 1334.78
  C 435.33 1332.42 439.11 1327.76 441.46 1327.27
  Q 442.24 1326.96 442.71 1327.16
  Q 454.43 1326.91 467.44 1324.46
  Q 502.56 1317.84 533.55 1309.52
  C 550.81 1304.89 571.43 1300.83 580.07 1282.25
  Q 581.86 1278.39 583.26 1275.21
  Q 584.47 1273.84 585.60 1273.86
  Q 602.42 1273.80 619.32 1272.04
  Q 623.83 1271.58 634.49 1272.20
  C 652.20 1273.23 660.43 1281.54 664.87 1298.13
  Q 667.03 1306.22 668.78 1316.99
  Q 669.29 1320.12 676.66 1370.28
  Q 680.06 1393.45 688.17 1435.71
  L 689.21 1440.53
  L 690.96 1450.05
  L 693.76 1462.70
  L 696.36 1476.34
  L 698.64 1486.25
  C 705.28 1518.24 714.19 1549.70 723.76 1580.52
  Q 726.20 1588.38 739.00 1640.08
  Q 739.60 1642.48 740.93 1652.52
  Q 741.84 1659.40 742.95 1664.92
  Q 751.81 1708.76 751.69 1753.52
  C 751.59 1791.23 748.99 1835.01 775.13 1866.61
  Q 781.23 1873.99 790.38 1877.66
  L 794.43 1879.14
  A 2.57 2.57 0.0 0 1 795.95 1880.69
  Q 800.18 1892.74 811.41 1899.87
  Q 817.68 1903.85 823.33 1904.68
  C 829.60 1905.60 833.96 1904.39 839.15 1900.78
  A 1.97 1.96 39.2 0 1 841.06 1900.59
  C 846.35 1902.91 850.99 1902.95 856.50 1900.74
  Q 864.14 1897.68 869.64 1892.14
  Q 885.47 1876.24 887.41 1853.73
  Q 887.64 1851.08 888.25 1842.50
  A 3.58 3.54 -28.3 0 1 888.71 1841.00
  L 891.29 1836.64
  C 892.51 1834.74 893.98 1832.63 894.78 1830.64
  C 907.30 1799.32 906.97 1765.55 898.83 1733.14
  C 893.10 1710.29 885.63 1689.58 878.41 1667.82
  C 869.89 1642.14 859.79 1605.14 854.22 1586.23
  C 842.20 1545.39 829.98 1510.80 818.90 1474.83
  Q 806.71 1435.24 799.85 1395.94
  Q 798.46 1387.94 797.42 1378.01
  C 795.68 1361.42 794.80 1345.42 797.91 1329.96
  C 799.57 1321.71 803.43 1312.11 811.32 1307.53
  C 825.75 1299.17 848.99 1313.43 860.58 1322.20
  Q 879.02 1336.17 894.70 1353.56
  Q 916.82 1378.10 935.93 1405.34
  Q 955.62 1433.40 969.91 1452.73
  Q 995.32 1487.11 1026.24 1512.91
  Q 1035.87 1520.94 1061.75 1541.54
  Q 1071.47 1549.27 1088.78 1565.54
  Q 1094.71 1571.12 1099.52 1577.52
  C 1104.84 1584.62 1113.96 1594.82 1119.77 1602.82
  Q 1139.15 1629.52 1155.13 1658.52
  Q 1164.70 1675.88 1175.32 1694.69
  C 1184.26 1710.52 1193.49 1725.89 1204.84 1739.67
  Q 1215.50 1752.60 1226.54 1759.74
  Q 1235.17 1765.32 1247.72 1766.04
  L 1260.63 1769.45
  Q 1260.69 1769.26 1260.96 1769.53
  A 0.84 0.84 0.0 0 0 1261.39 1769.76
  Q 1270.62 1771.43 1280.64 1771.07
  A 3.75 3.65 33.3 0 0 1281.78 1770.85
  Q 1283.99 1770.04 1293.74 1768.94
  Q 1300.70 1768.16 1306.23 1762.57
  Q 1312.64 1755.79 1316.17 1747.54
  C 1325.18 1725.57 1318.60 1703.19 1304.18 1685.80
  C 1292.36 1671.55 1283.44 1664.12 1264.62 1646.12
  Q 1246.77 1629.05 1232.60 1609.14
  Q 1213.59 1582.44 1194.39 1553.20
  C 1191.74 1549.17 1188.82 1545.71 1184.11 1540.88
  Q 1181.11 1537.80 1177.96 1533.51
  Q 1158.64 1507.14 1149.59 1495.44
  C 1120.95 1458.45 1101.34 1433.69 1078.63 1400.37
  C 1061.06 1374.59 1042.15 1346.36 1021.31 1319.29
  C 1006.57 1300.14 987.13 1276.45 972.16 1255.03
  Q 954.56 1229.84 935.88 1194.63
  Q 914.78 1154.87 901.38 1123.54
  Q 898.13 1115.94 894.98 1109.52
  C 891.92 1103.28 889.10 1098.34 887.08 1093.44
  Q 886.66 1092.41 886.43 1091.05
  Q 885.32 1084.33 883.84 1077.36
  L 884.00 1075.31
  L 1414.00 1475.74
  Z"
/>
<path fill="#221f1b" d="
  M 488.71 1086.37
  Q 489.88 1088.82 485.92 1090.65
  Q 458.66 1103.26 431.41 1115.92
  Q 428.11 1117.45 427.29 1115.72
  Q 426.47 1114.00 429.73 1112.40
  Q 456.69 1099.15 483.63 1085.86
  Q 487.54 1083.93 488.71 1086.37
  Z"
/>
<path fill="#221f1b" d="
  M 697.36 1120.48
  A 2.44 2.34 84.0 0 1 694.56 1118.12
  Q 694.48 1113.95 698.31 1110.36
  Q 702.74 1106.22 705.42 1100.07
  Q 706.25 1098.18 707.88 1098.28
  A 2.17 2.02 87.8 0 1 709.78 1100.17
  Q 710.20 1103.69 708.98 1107.22
  C 707.30 1112.07 702.75 1119.40 697.36 1120.48
  Z"
/>
<path fill="#221f1b" d="
  M 487.31 1100.74
  Q 487.55 1101.27 486.97 1101.99
  Q 484.59 1104.90 481.61 1106.33
  Q 479.34 1107.41 453.56 1117.95
  Q 445.91 1121.07 445.36 1119.85
  Q 444.80 1118.63 452.17 1114.91
  Q 477.05 1102.38 479.35 1101.37
  Q 482.39 1100.06 486.14 1100.18
  Q 487.07 1100.21 487.31 1100.74
  Z"
/>
<path fill="#221f1b" d="
  M 712.07 1116.51
  L 714.84 1107.28
  A 2.93 2.92 15.1 0 1 718.33 1105.28
  L 718.38 1105.29
  A 2.20 2.20 0.0 0 1 719.76 1108.14
  Q 717.77 1113.57 712.80 1117.04
  A 0.48 0.48 0.0 0 1 712.07 1116.51
  Z"
/>
<path fill="#221f1b" d="
  M 833.13 1107.35
  A 0.96 0.95 62.2 0 1 834.67 1107.83
  C 836.34 1113.92 838.61 1117.29 843.49 1122.03
  Q 847.57 1125.98 851.60 1131.39
  Q 852.00 1131.93 851.92 1132.32
  Q 851.80 1132.91 851.41 1132.84
  Q 838.24 1130.51 832.73 1119.30
  C 831.25 1116.29 830.30 1109.75 833.13 1107.35
  Z"
/>
<circle fill="#221f1b" cx="472.40" cy="1120.24" r="2.84"/>
<path fill="#221f1b" d="
  M 838.51 1135.77
  C 833.69 1136.44 825.80 1130.57 827.61 1125.25
  A 2.25 2.14 9.3 0 1 829.74 1123.80
  C 834.18 1123.86 837.98 1131.29 839.03 1134.96
  A 0.64 0.63 77.8 0 1 838.51 1135.77
  Z"
/>
<path fill="#221f1b" d="
  M 306.58 1301.73
  L 304.61 1296.61
  C 314.36 1268.38 323.77 1239.89 328.86 1210.56
  Q 331.16 1197.37 335.00 1180.36
  C 335.62 1177.64 336.91 1174.72 337.88 1172.42
  A 0.43 0.43 0.0 0 1 338.69 1172.49
  Q 339.42 1175.59 339.70 1179.45
  C 342.08 1213.10 332.57 1247.99 318.97 1278.99
  Q 313.98 1290.37 308.21 1302.25
  Q 307.87 1302.94 307.15 1302.58
  Q 306.78 1302.39 306.58 1301.73
  Z"
/>
<path fill="#221f1b" d="
  M 585.60 1273.86
  Q 584.47 1273.84 583.26 1275.21
  Q 581.84 1272.33 580.70 1269.38
  Q 579.11 1265.26 578.08 1263.71
  C 569.74 1251.21 554.82 1248.07 540.63 1252.20
  Q 534.89 1253.87 528.07 1257.11
  Q 509.36 1266.01 491.43 1274.19
  C 473.31 1282.46 460.96 1296.98 451.17 1313.92
  Q 449.96 1316.01 443.67 1325.74
  Q 443.26 1326.37 442.71 1327.16
  Q 442.24 1326.96 441.46 1327.27
  L 439.12 1327.36
  A 0.42 0.42 0.0 0 1 438.72 1326.78
  C 448.35 1302.62 465.01 1279.35 488.95 1267.69
  C 503.67 1260.52 514.82 1255.55 524.92 1250.62
  C 540.23 1243.13 557.76 1239.35 572.47 1248.28
  C 581.74 1253.91 587.12 1262.94 585.60 1273.86
  Z"
/>
<path fill="#3a352f" d="
  M 583.26 1275.21
  Q 581.86 1278.39 580.07 1282.25
  C 571.43 1300.83 550.81 1304.89 533.55 1309.52
  Q 502.56 1317.84 467.44 1324.46
  Q 454.43 1326.91 442.71 1327.16
  Q 443.26 1326.37 443.67 1325.74
  Q 449.96 1316.01 451.17 1313.92
  C 460.96 1296.98 473.31 1282.46 491.43 1274.19
  Q 509.36 1266.01 528.07 1257.11
  Q 534.89 1253.87 540.63 1252.20
  C 554.82 1248.07 569.74 1251.21 578.08 1263.71
  Q 579.11 1265.26 580.70 1269.38
  Q 581.84 1272.33 583.26 1275.21
  Z
  M 540.30 1261.22
  C 542.18 1265.50 547.97 1263.67 550.50 1261.23
  C 556.50 1255.41 548.55 1248.04 543.61 1253.61
  C 541.83 1255.62 539.32 1258.98 540.30 1261.22
  Z
  M 553.09 1267.58
  C 555.91 1272.24 570.93 1266.13 566.81 1259.29
  C 562.68 1252.46 550.28 1262.92 553.09 1267.58
  Z
  M 524.01 1282.00
  C 523.45 1285.31 521.99 1289.37 524.64 1292.57
  C 527.64 1296.18 533.05 1296.17 536.97 1293.95
  C 545.66 1289.04 551.72 1278.19 543.95 1269.38
  C 539.32 1264.12 529.98 1263.76 523.92 1265.98
  C 516.83 1268.59 518.72 1274.73 522.92 1278.71
  A 3.69 3.68 -63.5 0 1 524.01 1282.00
  Z
  M 556.61 1276.17
  C 555.13 1278.20 556.51 1281.22 558.69 1281.89
  Q 563.04 1283.23 568.36 1282.20
  C 572.03 1281.49 574.15 1278.19 572.26 1274.97
  C 568.75 1269.00 559.88 1271.69 556.61 1276.17
  Z
  M 562.5430 1294.5883
  A 6.12 5.30 28.8 0 0 559.7333 1286.9956
  A 6.12 5.30 28.8 0 0 551.8170 1288.6917
  A 6.12 5.30 28.8 0 0 554.6267 1296.2844
  A 6.12 5.30 28.8 0 0 562.5430 1294.5883
  Z"
/>
<path fill="#221f1b" d="
  M 540.30 1261.22
  C 539.32 1258.98 541.83 1255.62 543.61 1253.61
  C 548.55 1248.04 556.50 1255.41 550.50 1261.23
  C 547.97 1263.67 542.18 1265.50 540.30 1261.22
  Z"
/>
<path fill="#221f1b" d="
  M 566.81 1259.29
  C 570.93 1266.13 555.91 1272.24 553.09 1267.58
  C 550.28 1262.92 562.68 1252.46 566.81 1259.29
  Z"
/>
<path fill="#221f1b" d="
  M 524.01 1282.00
  A 3.69 3.68 -63.5 0 0 522.92 1278.71
  C 518.72 1274.73 516.83 1268.59 523.92 1265.98
  C 529.98 1263.76 539.32 1264.12 543.95 1269.38
  C 551.72 1278.19 545.66 1289.04 536.97 1293.95
  C 533.05 1296.17 527.64 1296.18 524.64 1292.57
  C 521.99 1289.37 523.45 1285.31 524.01 1282.00
  Z"
/>
<path fill="#221f1b" d="
  M 558.69 1281.89
  C 556.51 1281.22 555.13 1278.20 556.61 1276.17
  C 559.88 1271.69 568.75 1269.00 572.26 1274.97
  C 574.15 1278.19 572.03 1281.49 568.36 1282.20
  Q 563.04 1283.23 558.69 1281.89
  Z"
/>
<circle fill="#221f1b" cx="361.94" cy="1283.58" r="3.21"/>
<path fill="#221f1b" d="
  M 375.71 1306.98
  C 374.03 1309.69 368.01 1308.12 365.73 1306.75
  C 355.64 1300.70 350.13 1297.36 343.43 1290.58
  Q 341.35 1288.48 340.35 1286.14
  Q 340.11 1285.56 340.38 1285.11
  Q 340.66 1284.66 341.29 1284.63
  Q 343.83 1284.47 346.64 1285.40
  C 355.69 1288.37 361.14 1291.82 371.05 1298.15
  C 373.30 1299.59 377.39 1304.27 375.71 1306.98
  Z"
/>
<ellipse fill="#221f1b" cx="0.00" cy="0.00" transform="translate(557.18,1291.64) rotate(28.8)" rx="6.12" ry="5.30"/>
<path fill="#221f1b" d="
  M 358.77 1317.36
  A 0.99 0.99 0.0 0 1 358.02 1318.57
  C 354.78 1319.28 350.90 1316.99 348.47 1315.03
  C 344.91 1312.14 339.15 1308.40 337.55 1304.68
  A 0.97 0.97 0.0 0 1 338.22 1303.35
  C 342.05 1302.47 351.56 1308.66 354.76 1311.04
  C 356.72 1312.49 358.18 1315.00 358.77 1317.36
  Z"
/>
<path fill="#221f1b" d="
  M 976.65 1304.03
  Q 977.11 1304.57 976.43 1305.97
  C 973.01 1312.98 967.29 1317.00 960.10 1322.10
  Q 955.51 1325.35 950.61 1327.09
  Q 949.94 1327.33 949.55 1326.88
  Q 949.17 1326.42 949.52 1325.80
  Q 952.06 1321.26 956.04 1317.29
  C 962.29 1311.06 967.21 1306.11 974.70 1303.92
  Q 976.20 1303.49 976.65 1304.03
  Z"
/>
<path fill="#221f1b" d="
  M 949.15 1344.87
  Q 948.31 1343.43 949.73 1341.71
  C 955.98 1334.10 962.84 1328.24 969.93 1321.69
  C 975.77 1316.30 981.12 1311.73 988.01 1309.52
  A 0.99 0.98 1.1 0 1 989.24 1310.79
  C 986.97 1316.96 982.81 1320.67 977.16 1325.83
  Q 967.99 1334.20 960.43 1339.95
  Q 955.91 1343.39 951.45 1345.31
  A 1.99 1.49 -25.9 0 1 949.15 1344.87
  Z"
/>
<path fill="#221f1b" d="
  M 347.21 1323.17
  Q 346.99 1323.56 345.71 1323.32
  Q 341.21 1322.45 338.02 1320.25
  Q 335.13 1318.26 336.01 1316.73
  Q 336.89 1315.20 340.06 1316.70
  Q 343.57 1318.35 346.58 1321.81
  Q 347.43 1322.79 347.21 1323.17
  Z"
/>
<path fill="#221f1b" d="
  M 1003.08 1331.45
  Q 1003.50 1331.96 1002.56 1333.52
  C 1000.33 1337.21 997.67 1340.48 994.12 1343.16
  Q 987.26 1348.35 980.62 1353.11
  Q 977.50 1355.34 974.96 1355.98
  Q 973.92 1356.25 973.54 1355.80
  Q 973.17 1355.35 973.63 1354.37
  Q 974.75 1352.00 977.53 1349.36
  Q 983.47 1343.76 989.88 1338.01
  C 993.19 1335.04 996.91 1333.05 1000.95 1331.57
  Q 1002.66 1330.95 1003.08 1331.45
  Z"
/>
<ellipse fill="#221f1b" cx="0.00" cy="0.00" transform="translate(979.53,1336.46) rotate(-43.7)" rx="6.28" ry="2.49"/>
<path fill="#221f1b" d="
  M 689.21 1440.53
  L 688.17 1435.71
  Q 688.23 1435.09 688.37 1434.88
  A 1.25 1.24 -53.7 0 1 690.28 1434.58
  L 701.15 1444.41
  A 0.34 0.34 0.0 0 1 700.80 1444.98
  L 689.21 1440.53
  Z"
/>
<path fill="#221f1b" d="
  M 693.76 1462.70
  L 690.96 1450.05
  Q 691.19 1449.65 691.13 1449.35
  A 0.25 0.24 9.5 0 1 691.50 1449.09
  Q 700.12 1454.21 707.79 1459.20
  Q 716.36 1464.79 721.40 1473.30
  A 0.80 0.80 0.0 0 1 720.58 1474.49
  C 713.86 1473.43 708.44 1471.20 701.92 1467.40
  Q 698.00 1465.12 693.76 1462.70
  Z"
/>
<path fill="#221f1b" d="
  M 698.64 1486.25
  L 696.36 1476.34
  L 696.69 1475.69
  A 0.73 0.73 0.0 0 1 697.70 1475.38
  Q 707.35 1480.68 713.71 1489.00
  A 0.72 0.72 0.0 0 1 712.95 1490.14
  L 698.64 1486.25
  Z"
/>
<path fill="#221f1b" d="
  M 282.64 1611.25
  C 279.03 1613.75 277.75 1617.31 275.58 1620.06
  C 269.21 1628.17 256.23 1634.12 248.26 1624.45
  A 1.10 1.09 -36.2 0 0 246.82 1624.23
  C 232.38 1633.55 217.40 1621.48 217.12 1606.17
  A 2.10 2.09 -76.4 0 0 216.02 1604.36
  L 213.70 1603.08
  Q 218.38 1593.61 222.72 1584.15
  Q 227.90 1572.86 235.95 1564.64
  A 0.49 0.48 -20.9 0 1 236.78 1565.01
  Q 236.17 1575.45 233.01 1584.24
  C 230.63 1590.84 227.82 1599.94 230.62 1606.34
  C 234.86 1616.05 246.85 1599.77 249.59 1595.85
  Q 256.19 1586.40 259.27 1582.63
  A 0.40 0.40 0.0 0 1 259.97 1582.96
  Q 257.73 1594.66 257.83 1605.98
  Q 257.86 1608.71 258.65 1610.52
  A 1.61 1.61 0.0 0 0 260.98 1611.24
  Q 267.37 1607.26 269.52 1599.73
  Q 273.55 1585.59 279.97 1572.79
  A 0.44 0.44 0.0 0 1 280.80 1572.96
  C 281.04 1576.61 281.24 1581.48 281.03 1585.69
  Q 280.56 1594.96 281.48 1604.66
  C 281.68 1606.80 282.45 1608.98 282.64 1611.25
  Z"
/>
<path fill="#221f1b" d="
  M 844.82 1638.78
  Q 845.31 1639.07 845.31 1640.29
  C 845.28 1645.88 843.36 1648.90 839.98 1654.55
  Q 830.07 1671.10 821.79 1683.28
  C 819.65 1686.43 817.39 1688.76 814.42 1691.11
  Q 813.99 1691.45 813.54 1691.18
  Q 813.09 1690.91 813.18 1690.37
  C 813.84 1686.64 814.82 1683.55 816.58 1680.17
  Q 823.37 1667.10 833.24 1650.52
  C 836.60 1644.87 838.35 1641.74 843.26 1639.07
  Q 844.33 1638.49 844.82 1638.78
  Z"
/>
<path fill="#221f1b" d="
  M 802.75 1681.80
  A 0.57 0.57 0.0 0 1 801.84 1681.50
  Q 801.74 1681.14 801.87 1680.85
  C 803.70 1676.76 805.10 1672.52 807.09 1668.66
  Q 811.91 1659.28 815.94 1651.44
  Q 819.26 1645.00 825.04 1640.50
  A 1.01 1.01 0.0 0 1 826.67 1641.30
  Q 826.64 1649.96 821.40 1657.18
  Q 813.57 1667.98 807.23 1676.98
  Q 805.25 1679.80 802.75 1681.80
  Z"
/>
<path fill="#221f1b" d="
  M 846.33 1662.23
  Q 846.63 1662.45 846.55 1662.71
  Q 844.45 1669.39 840.81 1673.82
  Q 838.56 1676.56 836.98 1675.44
  Q 835.40 1674.32 837.24 1671.28
  Q 840.20 1666.38 845.80 1662.18
  Q 846.03 1662.02 846.33 1662.23
  Z"
/>
<path fill="#221f1b" d="
  M 1316.17 1747.54
  Q 1312.64 1755.79 1306.23 1762.57
  L 1305.87 1762.63
  A 0.74 0.74 0.0 0 1 1305.06 1761.67
  Q 1307.00 1755.65 1305.67 1749.59
  Q 1304.57 1744.61 1301.95 1734.01
  C 1300.11 1726.58 1299.80 1720.91 1300.54 1714.16
  A 0.42 0.42 0.0 0 1 1301.27 1713.93
  Q 1306.57 1719.95 1309.70 1727.57
  Q 1312.39 1734.13 1316.17 1747.54
  Z"
/>
<path fill="#221f1b" d="
  M 1291.17 1768.87
  Q 1287.89 1768.32 1283.99 1770.00
  A 1.60 1.57 32.7 0 1 1283.36 1770.13
  L 1281.19 1770.13
  A 0.66 0.66 0.0 0 1 1280.71 1769.01
  C 1281.81 1767.88 1282.63 1767.12 1283.06 1765.99
  Q 1285.00 1760.92 1284.75 1756.22
  Q 1283.91 1740.06 1287.23 1724.67
  A 0.45 0.45 0.0 0 1 1288.07 1724.57
  Q 1298.17 1745.21 1293.72 1767.12
  A 2.23 2.22 -79.4 0 1 1291.17 1768.87
  Z"
/>
<path fill="#221f1b" d="
  M 1260.63 1769.45
  L 1247.72 1766.04
  Q 1249.43 1756.52 1250.30 1746.83
  C 1250.85 1740.68 1251.97 1736.25 1253.53 1730.65
  A 0.72 0.72 0.0 0 1 1254.86 1730.50
  C 1256.97 1734.40 1258.55 1738.45 1259.23 1743.20
  C 1260.27 1750.36 1262.72 1759.89 1261.96 1768.41
  A 0.85 0.85 0.0 0 1 1261.44 1769.13
  L 1260.63 1769.45
  Z"
/>
<path fill="#221f1b" d="
  M 891.29 1836.64
  L 888.71 1841.00
  A 3.58 3.54 -28.3 0 0 888.25 1842.50
  Q 887.64 1851.08 887.41 1853.73
  Q 885.47 1876.24 869.64 1892.14
  Q 864.14 1897.68 856.50 1900.74
  C 850.99 1902.95 846.35 1902.91 841.06 1900.59
  A 1.97 1.96 39.2 0 0 839.15 1900.78
  C 833.96 1904.39 829.60 1905.60 823.33 1904.68
  Q 817.68 1903.85 811.41 1899.87
  Q 800.18 1892.74 795.95 1880.69
  A 2.57 2.57 0.0 0 0 794.43 1879.14
  L 790.38 1877.66
  Q 792.17 1855.12 804.03 1836.88
  Q 804.20 1836.61 804.47 1836.10
  Q 804.91 1835.28 805.67 1835.20
  A 1.10 1.08 -88.1 0 1 806.85 1836.48
  Q 804.58 1849.97 803.64 1858.84
  Q 802.83 1866.54 803.24 1871.75
  C 803.57 1875.81 807.16 1880.67 810.02 1883.50
  Q 814.54 1887.98 818.94 1892.69
  A 5.62 5.12 82.7 0 0 819.81 1893.43
  Q 825.23 1897.06 831.44 1896.39
  C 835.13 1895.99 835.79 1888.87 835.81 1886.00
  Q 835.87 1878.47 835.66 1871.55
  C 835.41 1862.74 836.71 1856.03 838.32 1848.54
  A 0.42 0.42 0.0 0 1 839.10 1848.42
  Q 843.89 1856.93 846.23 1866.31
  C 847.62 1871.88 849.50 1884.73 852.80 1892.70
  C 857.02 1902.87 864.27 1895.33 867.01 1889.74
  Q 870.27 1883.11 873.62 1873.31
  Q 878.75 1858.29 877.92 1842.24
  Q 877.42 1832.60 876.23 1824.00
  Q 874.92 1814.49 878.28 1805.70
  A 0.50 0.49 36.3 0 1 879.13 1805.57
  Q 882.46 1809.76 884.34 1814.42
  Q 888.65 1825.14 891.29 1836.64
  Z"
/>
</svg>
